<svg xmlns="http://www.w3.org/2000/svg" viewBox="0 0 2902.08 1271.35"><defs><style>.cls-1{isolation:isolate;}.cls-2,.cls-4{fill:#ffcb05;}.cls-2,.cls-3,.cls-5,.cls-7{mix-blend-mode:multiply;}.cls-5,.cls-6{fill:#f15a29;}.cls-7,.cls-8{fill:#1c75bc;}</style></defs><g class="cls-1"><g id="Layer_2" data-name="Layer 2"><g id="Isolation_Mode" data-name="Isolation Mode"><path class="cls-2" d="M1694.87,571.63c-32.65,37.62-119.25,104.51-250.07,106.67s-217.55-62-232.58-75.78C970.34,413.89,719.35,25.29,719.35,25.29l714.72,1241.47L2170.49,1.4S1923.88,332.57,1694.87,571.63Z"/><g class="cls-3"><path class="cls-4" d="M1621.74,446.53c1.69,102.46-78.36,186.85-178.8,188.51S1259.73,555,1258,452.52,1336.4,265.68,1436.84,264,1620.06,344.08,1621.74,446.53Z"/></g><path class="cls-2" d="M1573.48,902c-17.18,20-62.73,55.44-131.56,56.57s-114.45-32.89-122.36-40.22c-127.27-100.09-259.35-306.27-259.35-306.27l376.11,658.69,387.34-671.26S1693.94,775.18,1573.48,902Z"/><path class="cls-2" d="M1508.77,1075.56c-9,10.52-33.06,29.22-69.34,29.82s-60.34-17.34-64.5-21.2c-67.09-52.76-136.71-161.44-136.71-161.44L1436.47,1270l204.18-353.84S1572.27,1008.71,1508.77,1075.56Z"/><path class="cls-5" d="M960.91,697c16.25,47.09,30.88,155.53-32.66,269.9s-162.44,157.42-181.92,163.53C462,1245.6,0,1268.67,0,1268.67l1432.51,1.77L704.88,0S868.37,379.15,960.91,697Z"/><g class="cls-3"><path class="cls-6" d="M802.06,690.05c88.58,49.21,120.84,160.29,72.06,248.09S714,1057.23,625.4,1008s-120.84-160.3-72.06-248.1S713.48,640.83,802.06,690.05Z"/></g><path class="cls-5" d="M1186.32,967.32c8.7,24.86,16.65,82-16.78,142.22s-85.72,82.68-96,85.86c-150.31,60.17-394.91,71.46-394.91,71.46l758.5,3.63L1049.45,599.41S1136.73,799.59,1186.32,967.32Z"/><path class="cls-5" d="M1304.28,1110.14c4.58,13.1,8.77,43.25-8.85,75s-45.18,43.58-50.61,45.26c-79.24,31.71-208.17,37.67-208.17,37.67l399.82,1.91L1232.12,916.21S1278.13,1021.73,1304.28,1110.14Z"/><path class="cls-7" d="M2170.43,1144.57c-48.9-9.47-150.13-51-217.41-163.24S1897.91,762,1902.36,742c42.42-303.79,253.46-715.46,253.46-715.46L1438,1266.27l1464.05,5.08S2492,1223.36,2170.43,1144.57Z"/><g class="cls-3"><path class="cls-8" d="M2256.23,1010.28c-87.1,52.22-199.58,24.71-251.23-61.44s-22.91-198.32,64.19-250.54,199.58-24.71,251.23,61.45S2343.33,958.07,2256.23,1010.28Z"/></g><path class="cls-7" d="M1823.63,1204.63c-25.87-4.9-79.38-26.61-114.77-85.65s-28.75-115.56-26.35-126.08c23-160.26,135.57-377.74,135.57-377.74l-382.4,655.07,775-.18S1993.69,1245.54,1823.63,1204.63Z"/><path class="cls-7" d="M1641,1235.37c-13.64-2.58-41.84-14-60.5-45.15s-15.15-60.91-13.89-66.45c12.15-84.48,71.46-199.12,71.46-199.12L1436.47,1270l408.53-.1S1730.61,1256.94,1641,1235.37Z"/></g></g></g></svg>