<svg xmlns="http://www.w3.org/2000/svg" viewBox="0 0 459.85 434.81"><defs><style>.cls-1{fill:#f0f0f0;}.cls-2,.cls-3{opacity:0.1;}.cls-4{fill:#37474f;}.cls-21,.cls-26,.cls-5{fill:#fff;}.cls-6{fill:#455a64;}.cls-16,.cls-20,.cls-7{fill:#27debf;}.cls-20,.cls-8{opacity:0.15;}.cls-9{fill:#fafafa;}.cls-10{fill:#f5f5f5;}.cls-11{fill:#ebebeb;}.cls-12{fill:#e0e0e0;}.cls-13,.cls-14,.cls-16,.cls-21{opacity:0.3;}.cls-15{opacity:0.2;}.cls-17,.cls-18{fill:none;stroke:#e0e0e0;stroke-miterlimit:10;}.cls-17{stroke-width:0.38px;}.cls-18{stroke-width:0.39px;}.cls-19{fill:#263238;}.cls-22{opacity:0.5;}.cls-23{fill:#ffa8a7;}.cls-24{fill:#ffc4c3;}.cls-25{fill:#f28f8f;}.cls-26{opacity:0.4;}</style></defs><g id="Layer_2" data-name="Layer 2"><g id="Floor"><g id="Floor-2" data-name="Floor"><ellipse id="Floor-3" data-name="Floor" class="cls-1" cx="231.31" cy="302.86" rx="228.54" ry="131.95"/></g></g><g id="Shadows"><g id="Shadow" class="cls-2"><polygon points="236.99 401.97 115.13 331.62 297.92 226.08 419.78 296.44 236.99 401.97"/><ellipse cx="389.11" cy="339.49" rx="46.68" ry="26.95"/></g><polygon id="Shadow-2" data-name="Shadow" class="cls-3" points="58.56 333.47 20.03 311.23 270.48 166.63 309.01 188.87 58.56 333.47"/></g><g id="Plants"><g id="Plants-2" data-name="Plants"><path class="cls-4" d="M45.52,291.43s-.42-13.91-6.38-25.17S24.31,247.53,15.59,246.1-.91,252.17,8,258.51,33.19,271.9,39.15,293.3Z"/><path class="cls-5" d="M43.24,287.64l.09,0a.47.47,0,0,0,.31-.59c-7.37-23.61-24.22-34.62-32.11-37.14a.47.47,0,1,0-.28.9c7.72,2.47,24.24,13.28,31.49,36.52A.48.48,0,0,0,43.24,287.64Z"/><path class="cls-6" d="M.2,279.77c.59,1.76,2.35,2.81,4,3.66s3.45,1.77,4.22,3.46c1.57,3.4-1.93,7.66-.21,11a5.79,5.79,0,0,0,3.73,2.66,38.16,38.16,0,0,0,3.84.71,16.57,16.57,0,0,0,1.86,0,8.38,8.38,0,0,1,5.29,1.07c2.43,1.68,2.91,5,4.24,7.64a12.23,12.23,0,0,0,8.13,6.24c2.88.65,7.3.41,8.17-.81.66-.92-.76-4-.69-5.17a46.45,46.45,0,0,0-.29-8.74,16,16,0,0,1-.18-4c.15-1.49.29-3,.42-4.46s.63-2.84.21-4.52a17.06,17.06,0,0,0-2.12-4.46c-.85-1.38-1.71-2.76-2.59-4.12a22.82,22.82,0,0,0-3.49-4.55,12.25,12.25,0,0,0-9.13-3.24c-2.75.2-5.54,1.47-8.32,1.08s-5.29-1.35-8.08-1.42a9.72,9.72,0,0,0-7.87,3.21A5.13,5.13,0,0,0,.2,279.77Z"/><path class="cls-5" d="M41.76,308h0a.41.41,0,0,0,.34-.48c-4.36-25.92-30.66-32.08-36.93-32.22a.42.42,0,1,0,0,.84c6.14.13,31.86,6.16,36.13,31.52A.42.42,0,0,0,41.76,308Z"/><path class="cls-5" d="M13.36,292.39a.43.43,0,0,0,.23-.1,22.24,22.24,0,0,1,18.61-3.4.42.42,0,1,0,.2-.81,23.14,23.14,0,0,0-19.35,3.57.42.42,0,0,0,.31.74Z"/></g></g><g id="Book"><g id="Book-2" data-name="Book"><rect class="cls-7" x="144.77" y="75.42" width="3.02" height="3.99"/><rect class="cls-8" x="144.77" y="75.42" width="3.02" height="3.99"/><polygon class="cls-7" points="42.77 141.98 285.14 2.04 285.14 180.85 42.77 320.78 42.77 141.98"/><polygon class="cls-8" points="42.77 141.98 285.14 2.04 285.14 180.85 42.77 320.78 42.77 141.98"/><path class="cls-5" d="M164,75.72l3.73,2.2c4.61,2.71,22.58,2,34.47-4.81l96.27-55.6L281.61,7.8Z"/><path class="cls-9" d="M298.42,17.51,202.14,73.1c-11.88,6.88-29.86,7.53-34.46,4.83L164,75.72v171h0l3.73,2.2c4.6,2.71,22.57,2.05,34.46-4.81l96.23-55.58.05,0Z"/><path class="cls-10" d="M298.42,17.51,202.14,73.1c-11.88,6.88-29.86,7.53-34.46,4.83L164,75.72v171h0l3.73,2.2c4.6,2.71,22.57,2.05,34.46-4.81l96.28-55.6Z"/><path class="cls-11" d="M201.12,73.67c-11.87,6.34-29,6.88-33.44,4.26L164,75.72v171h0l3.73,2.2c4.47,2.63,21.57,2.09,33.44-4.25Z"/><path class="cls-12" d="M181.51,79.17c-6.27.58-11.61.06-13.83-1.24L164,75.72v171h0l3.73,2.2c2.22,1.31,7.56,1.83,13.83,1.25Z"/><path class="cls-5" d="M167.42,77.76C172,80.48,171,91.14,159.13,98L63.25,153.82,46,143.84,164,75.72Z"/><polygon class="cls-12" points="45.97 143.84 63.25 153.82 63.25 324.85 45.97 314.87 45.97 143.84"/><path class="cls-10" d="M159.13,98l-4.29,2.5L63.25,153.82v171l95.88-55.79c8.7-5.06,10.8-9.48,10.83-13.43h0V82.26C169.9,88.48,166.19,93.64,159.13,98Z"/><polygon class="cls-7" points="39.29 139.93 42.77 141.98 42.77 320.78 39.29 318.77 39.29 139.93"/><polygon class="cls-13" points="39.29 139.93 42.77 141.98 42.77 320.78 39.29 318.77 39.29 139.93"/><polygon class="cls-7" points="39.29 139.93 281.66 0 285.14 2.04 42.77 141.98 39.29 139.93"/><path class="cls-7" d="M172.76,61.27a5.49,5.49,0,0,0-4.93,0L145.79,74c-1.36.78-1.36,2.06,0,2.84l4.89,2.83,27-15.57Z"/><g class="cls-14"><path d="M75,166l79.89-46.15,2.24-1.31a4.12,4.12,0,0,0,2-3c0-1-.92-1.28-2-.62l-2.24,1.31L75,162.34a4.09,4.09,0,0,0-2,3C72.9,166.35,73.82,166.64,75,166Z"/><path d="M75,174.72l79.89-46.15,2.24-1.31a4.12,4.12,0,0,0,2-3c0-1-.92-1.28-2-.62l-2.24,1.31L75,171.08a4.09,4.09,0,0,0-2,3C72.9,175.09,73.82,175.38,75,174.72Z"/><path d="M75,183.46l79.89-46.15,2.24-1.31a4.12,4.12,0,0,0,2-3c0-1-.92-1.28-2-.62l-2.24,1.31L75,179.82a4.09,4.09,0,0,0-2,3C72.9,183.83,73.82,184.12,75,183.46Z"/><path d="M75,192.2l79.89-46.15,2.24-1.31a4.12,4.12,0,0,0,2-3c0-1-.92-1.28-2-.62l-2.24,1.31L75,188.56a4.09,4.09,0,0,0-2,3C72.9,192.57,73.82,192.86,75,192.2Z"/><path d="M75,200.94l79.89-46.15,2.24-1.31a4.12,4.12,0,0,0,2-3c0-1-.92-1.29-2-.63l-2.24,1.31L75,197.3a4.09,4.09,0,0,0-2,3C72.9,201.31,73.82,201.6,75,200.94Z"/><path d="M75,209.68l79.89-46.15,2.24-1.31a4.12,4.12,0,0,0,2-3c0-1-.92-1.29-2-.63l-2.24,1.31L75,206a4.09,4.09,0,0,0-2,3C72.9,210.05,73.82,210.34,75,209.68Z"/><path d="M75,218.42l79.89-46.15,2.24-1.31a4.12,4.12,0,0,0,2-3c0-1-.92-1.29-2-.63l-2.24,1.31L75,214.78a4.09,4.09,0,0,0-2,3C72.9,218.79,73.82,219.08,75,218.42Z"/><path d="M75,227.16,154.84,181l2.24-1.31a4.12,4.12,0,0,0,2-3c0-1-.92-1.29-2-.63l-2.24,1.31L75,223.52a4.09,4.09,0,0,0-2,3C72.9,227.53,73.82,227.82,75,227.16Z"/><path d="M75,235.9l79.89-46.15,2.24-1.31a4.12,4.12,0,0,0,2-3c0-1-.92-1.29-2-.63l-2.24,1.31L75,232.26a4.09,4.09,0,0,0-2,3C72.9,236.27,73.82,236.56,75,235.9Z"/><path d="M75,244.64l79.89-46.15,2.24-1.31a4.12,4.12,0,0,0,2-3c0-1-.92-1.29-2-.63l-2.24,1.31L75,241a4.09,4.09,0,0,0-2,3C72.9,245,73.82,245.3,75,244.64Z"/><path d="M75,253.38l79.89-46.15,2.24-1.31a4.12,4.12,0,0,0,2-3c0-1-.92-1.29-2-.63l-2.24,1.31L75,249.74a4.1,4.1,0,0,0-2,3C72.9,253.75,73.82,254,75,253.38Z"/><path d="M75,262.12,154.84,216l2.24-1.31a4.12,4.12,0,0,0,2-3c0-1-.92-1.29-2-.63l-2.24,1.31L75,258.48a4.09,4.09,0,0,0-2,3C72.9,262.49,73.82,262.78,75,262.12Z"/><path d="M75,270.86l79.89-46.15,2.24-1.31a4.12,4.12,0,0,0,2-3c0-1-.92-1.29-2-.63l-2.24,1.31L75,267.22a4.1,4.1,0,0,0-2,3C72.9,271.23,73.82,271.52,75,270.86Z"/><path d="M75,279.6l79.89-46.15,2.24-1.31a4.12,4.12,0,0,0,2-3c0-1-.92-1.29-2-.63l-2.24,1.31L75,276a4.1,4.1,0,0,0-2,3C72.9,280,73.82,280.26,75,279.6Z"/><path d="M75,288.34l79.89-46.15,2.24-1.31a4.12,4.12,0,0,0,2-3c0-1-.92-1.29-2-.63l-2.24,1.31L75,284.7a4.1,4.1,0,0,0-2,3C72.9,288.71,73.82,289,75,288.34Z"/><path d="M75,297.08l79.89-46.15,2.24-1.31a4.12,4.12,0,0,0,2-3c0-1-.92-1.29-2-.63l-2.24,1.31L75,293.44a4.1,4.1,0,0,0-2,3C72.9,297.45,73.82,297.74,75,297.08Z"/><path d="M75,305.82l79.89-46.15,2.24-1.31a4.12,4.12,0,0,0,2-3c0-1-.92-1.29-2-.63L154.84,256,75,302.18a4.1,4.1,0,0,0-2,3C72.9,306.19,73.82,306.48,75,305.82Z"/></g><g class="cls-14"><path d="M189.58,93.87c-1.27.29-2.32,1.28-2.32,2.26s1.05,1.59,2.32,1.29a46.14,46.14,0,0,0,12.56-4.76L286.29,44a4.07,4.07,0,0,0,2-3c0-1-.92-1.24-2-.59L202.14,89.1A46.16,46.16,0,0,1,189.58,93.87Z"/><path d="M189.58,102.61c-1.27.3-2.32,1.29-2.32,2.27s1.05,1.58,2.32,1.29a46.16,46.16,0,0,0,12.56-4.77l84.15-48.69a4.06,4.06,0,0,0,2-3c0-1-.92-1.25-2-.59L202.14,97.85A46.14,46.14,0,0,1,189.58,102.61Z"/><path d="M189.58,111.36c-1.27.29-2.32,1.28-2.32,2.27s1.05,1.58,2.32,1.28a46.14,46.14,0,0,0,12.56-4.76l84.15-48.69a4.07,4.07,0,0,0,2-3c0-1-.92-1.24-2-.59l-84.15,48.69A46.16,46.16,0,0,1,189.58,111.36Z"/><path d="M189.58,120.1c-1.27.3-2.32,1.29-2.32,2.27s1.05,1.58,2.32,1.29a46.47,46.47,0,0,0,12.56-4.76l84.15-48.7a4.06,4.06,0,0,0,2-3c0-1-.92-1.25-2-.59l-84.15,48.69A46.14,46.14,0,0,1,189.58,120.1Z"/><path d="M189.58,128.85c-1.27.29-2.32,1.28-2.32,2.27s1.05,1.58,2.32,1.28a46.14,46.14,0,0,0,12.56-4.76L286.29,79a4.07,4.07,0,0,0,2-3c0-1-.92-1.24-2-.59l-84.15,48.69A46.16,46.16,0,0,1,189.58,128.85Z"/><path d="M189.58,137.59c-1.27.3-2.32,1.29-2.32,2.27s1.05,1.59,2.32,1.29a46.47,46.47,0,0,0,12.56-4.76L286.29,87.7a4.09,4.09,0,0,0,2-3c0-1-.92-1.25-2-.59l-84.15,48.69A46.14,46.14,0,0,1,189.58,137.59Z"/><path d="M189.58,146.34c-1.27.29-2.32,1.28-2.32,2.27s1.05,1.58,2.32,1.28a46.14,46.14,0,0,0,12.56-4.76l84.15-48.69a4.07,4.07,0,0,0,2-3c0-1-.92-1.24-2-.59l-84.15,48.69A46.16,46.16,0,0,1,189.58,146.34Z"/><path d="M189.58,155.08c-1.27.3-2.32,1.29-2.32,2.27s1.05,1.59,2.32,1.29a46.47,46.47,0,0,0,12.56-4.76l84.15-48.69a4.09,4.09,0,0,0,2-3c0-1-.92-1.25-2-.59l-84.15,48.69A46.14,46.14,0,0,1,189.58,155.08Z"/><path d="M189.58,163.83c-1.27.29-2.32,1.28-2.32,2.27s1.05,1.58,2.32,1.28a46.14,46.14,0,0,0,12.56-4.76l84.15-48.69a4.06,4.06,0,0,0,2-3c0-1-.92-1.24-2-.59l-84.15,48.69A46.16,46.16,0,0,1,189.58,163.83Z"/><path d="M189.58,172.57c-1.27.3-2.32,1.29-2.32,2.27s1.05,1.59,2.32,1.29a46.47,46.47,0,0,0,12.56-4.76l84.15-48.69a4.09,4.09,0,0,0,2-3c0-1-.92-1.25-2-.59l-84.15,48.69A46.14,46.14,0,0,1,189.58,172.57Z"/><path d="M189.58,181.32c-1.27.29-2.32,1.28-2.32,2.27s1.05,1.58,2.32,1.28a45.82,45.82,0,0,0,12.56-4.76l84.15-48.69a4.06,4.06,0,0,0,2-3c0-1-.92-1.25-2-.6l-84.15,48.69A46.16,46.16,0,0,1,189.58,181.32Z"/><path d="M189.58,190.06c-1.27.3-2.32,1.29-2.32,2.27s1.05,1.59,2.32,1.29a46.47,46.47,0,0,0,12.56-4.76l84.15-48.69a4.09,4.09,0,0,0,2-3c0-1-.92-1.25-2-.59L202.14,185.3A46.14,46.14,0,0,1,189.58,190.06Z"/><path d="M189.58,198.81c-1.27.3-2.32,1.29-2.32,2.27s1.05,1.58,2.32,1.29a46.16,46.16,0,0,0,12.56-4.77l84.15-48.69a4.06,4.06,0,0,0,2-3c0-1-.92-1.25-2-.6l-84.15,48.7A46.47,46.47,0,0,1,189.58,198.81Z"/><path d="M189.58,207.55c-1.27.3-2.32,1.29-2.32,2.27s1.05,1.59,2.32,1.29a46.47,46.47,0,0,0,12.56-4.76l84.15-48.69a4.09,4.09,0,0,0,2-3c0-1-.92-1.25-2-.59l-84.15,48.69A46.14,46.14,0,0,1,189.58,207.55Z"/><path d="M189.58,216.3c-1.27.3-2.32,1.29-2.32,2.27s1.05,1.58,2.32,1.29a46.16,46.16,0,0,0,12.56-4.77l84.15-48.69a4.06,4.06,0,0,0,2-3c0-1-.92-1.25-2-.59l-84.15,48.69A46.47,46.47,0,0,1,189.58,216.3Z"/><path d="M189.58,225c-1.27.3-2.32,1.29-2.32,2.27s1.05,1.59,2.32,1.29a46.14,46.14,0,0,0,12.56-4.76l84.15-48.69a4.09,4.09,0,0,0,2-3c0-1-.92-1.25-2-.59l-84.15,48.69A46.14,46.14,0,0,1,189.58,225Z"/><path d="M189.58,233.79c-1.27.3-2.32,1.29-2.32,2.27s1.05,1.58,2.32,1.29a46.16,46.16,0,0,0,12.56-4.77l84.15-48.69a4.06,4.06,0,0,0,2-3c0-1-.92-1.25-2-.59L202.14,229A46.47,46.47,0,0,1,189.58,233.79Z"/></g><polygon class="cls-15" points="59.43 151.73 73.24 142.73 58.23 150.92 58.23 167.86 59.43 151.73"/><polygon class="cls-15" points="50.85 146.64 77.78 131.09 52.09 147.38 50.85 181.62 50.85 146.64"/><polygon class="cls-15" points="59.44 322.65 58.93 296.2 57.62 321.6 59.44 322.65"/><polygon class="cls-15" points="52.7 318.72 51.71 279.32 51.09 317.83 52.7 318.72"/><polygon class="cls-15" points="273.62 26.52 292.93 14.36 294.37 15.18 273.62 26.52"/><polygon class="cls-15" points="287.8 11.38 254.68 31.12 288.86 11.99 287.8 11.38"/><polygon class="cls-16" points="70.11 242.26 70.11 248.94 162.59 195.55 162.59 188.87 70.11 242.26"/><polygon class="cls-16" points="70.11 250.87 70.11 257.55 162.59 204.16 162.59 197.48 70.11 250.87"/><polygon class="cls-16" points="70.11 259.93 70.11 266.6 162.59 213.21 162.59 206.54 70.11 259.93"/><polygon class="cls-16" points="70.11 268.67 70.11 275.34 121.05 245.6 121.05 238.93 70.11 268.67"/><polygon class="cls-16" points="216.53 157.73 289.74 115.46 289.74 122.14 216.53 164.97 216.53 157.73"/><path class="cls-16" d="M201.12,175.53l88.62-51.12v6.68l-88.62,51.68c-4.48,2.75-9.88,4-15.66,4.76v-7.18A39.4,39.4,0,0,0,201.12,175.53Z"/><path class="cls-16" d="M201.12,184l88.62-51.12v6.68L201.12,191.2c-4.48,2.75-9.88,4-15.66,4.76v-7.18A39.24,39.24,0,0,0,201.12,184Z"/><path class="cls-16" d="M201.12,192.39l88.62-51.11V148l-88.62,51.69c-4.48,2.74-9.88,4-15.66,4.76v-7.19A39.24,39.24,0,0,0,201.12,192.39Z"/><polygon class="cls-16" points="70.11 163.67 70.11 170.34 162.59 116.95 162.59 110.28 70.11 163.67"/><polygon class="cls-16" points="70.11 172.28 70.11 178.95 162.59 125.56 162.59 118.89 70.11 172.28"/></g></g><g id="Note"><g id="Note-2" data-name="Note"><polygon class="cls-3" points="244.51 72.75 244.51 137.78 298.39 106.68 298.39 41.65 244.51 72.75"/><path class="cls-6" d="M311.85,103.06s-2.63,4.45-12,9.88l-47.44,27.4-5.7-56.53L300.55,52.7l3.55,38.51C304.58,96.55,306.66,102.22,311.85,103.06Z"/><polygon class="cls-4" points="300.55 52.71 246.68 83.81 246.68 73.83 300.55 42.73 300.55 52.71"/><path class="cls-9" d="M295,71.66c-.77.8-2.2,1.83-3.16.7l0-.07a5.23,5.23,0,0,0,.61-3.73c-.08-.3-.61-.87-.95-.52a3.8,3.8,0,0,0-.93,3.85,11.68,11.68,0,0,1-2.06,2.45A4.14,4.14,0,0,1,286,75.67c-1.19,0-1-1.88-1-2.71,0-.37-.74-1.16-1-.6a22.26,22.26,0,0,1-2.53,3.9,12.88,12.88,0,0,1-1.8,2,2.63,2.63,0,0,1-.68.46h0a2,2,0,0,1-.06-.29c0-.48-.74-1.14-1-.48-.61,1.34-1.6,4.45-3.31,4.82-.53.11-1-.32-1.51-.32a1.54,1.54,0,0,0-1.11.48,15.77,15.77,0,0,0-1.68,2.44c-.22.3-.62,1-1,1.11-.55.17-.58-.86-.66-1.31s-.5-.81-.86-.55a4.67,4.67,0,0,0-1.59,2.16,4,4,0,0,1-.39-1.44c0-.33-.62-.92-.9-.49a20.92,20.92,0,0,1-3.26,3.83c-.8.75-3.14,3-4.28,1.71a2.58,2.58,0,0,1-.56-1.87,8,8,0,0,0,2.6-2.71,14.12,14.12,0,0,0,2.21-6.19c0-.25-.2-.61-.48-.6-1.55,0-2.63,2.14-3.25,3.31a15.25,15.25,0,0,0-1.93,5.74,1,1,0,0,0,0,.17,3.05,3.05,0,0,1-1.6.19c-.23,0-.23.49,0,.53a3.25,3.25,0,0,0,1.62-.08,3.26,3.26,0,0,0,1.73,2.81c1.47.55,3.08-.72,4.11-1.6A21.67,21.67,0,0,0,265,86.61a3.7,3.7,0,0,0,1,1.61c.23.21.62.31.76-.06a6.23,6.23,0,0,1,1-1.93c.29.89.82,1.78,1.8,1.49,1.13-.33,1.87-2,2.46-2.89.3-.46.64-1.2,1.29-1.18s1.09.55,1.92.2c1.58-.67,2.42-2.53,3.11-4.16a1.08,1.08,0,0,0,.6.27c.79.1,1.52-.71,2-1.22a22.85,22.85,0,0,0,3.07-4,2.7,2.7,0,0,0,1.2,1.8c1,.62,2.29.09,3.21-.52a10.92,10.92,0,0,0,2.86-2.89c1.43,1.58,3.36.78,4.6-.65C296.28,72.09,295.48,71.19,295,71.66Zm-37.21,13a17.78,17.78,0,0,1,1.43-2.82,4.67,4.67,0,0,1,1.41-1.61,14.85,14.85,0,0,1-1.84,5,8.35,8.35,0,0,1-2,2.51A16.13,16.13,0,0,1,257.82,84.63Z"/><path class="cls-9" d="M273.15,111.44c4.9-3,8.69-7.84,11.45-12.84s5.16-11.08,4-16.82c-.06-.34-.76-.76-.79-.19a36.68,36.68,0,0,1-4.77,16.23,35.82,35.82,0,0,1-9,10.85c.14-.35.27-.7.39-1.06a19.56,19.56,0,0,0,.77-2.79c.08-.43.16-.86.2-1.29a6.34,6.34,0,0,0-.13-1.5.56.56,0,0,0-.41-.46c-.29,0-.21.2-.33.35a3.83,3.83,0,0,0-.46,1.37c-.1.41-.22.82-.35,1.23-.27.85-.54,1.7-.86,2.54-.64,1.71-1.43,3.35-2.2,5-.27.58.34,1.2.91,1.2a14.39,14.39,0,0,0,5.52-1.14c.83-.33,1.65-.7,2.46-1.09a19.9,19.9,0,0,0,2.34-1.21c.76-.51-.36-1.51-1-1.3-1.58.51-3,1.45-4.57,2.08a15.06,15.06,0,0,1-3.48,1l0-.07A.71.71,0,0,0,273.15,111.44Z"/></g></g><g id="Notebook"><g id="Notebook-2" data-name="Notebook"><g id="Notebook-3" data-name="Notebook"><path class="cls-7" d="M204.93,276.37v-2.24l84.93-46.79a4.41,4.41,0,0,1,4,0l117.77,66.44V296a1.41,1.41,0,0,1-.84,1.16l-84.92,49Z"/><path class="cls-3" d="M411.66,296v-2.23l-1.44-.81L325.9,344v2.24l84.92-49A1.41,1.41,0,0,0,411.66,296Z"/><path class="cls-7" d="M204.93,274.13l84.93-49a4.47,4.47,0,0,1,4,0l116.93,67.52a1.22,1.22,0,0,1,0,2.32L325.9,344Z"/><polygon class="cls-15" points="325.9 346.2 325.9 343.96 204.94 274.13 204.94 276.37 325.9 346.2"/><path class="cls-7" d="M206.87,277.44,121,322.64l-1.77,2.78v2.24a3.24,3.24,0,0,0,1.77,2.77l113.15,65.33a6.31,6.31,0,0,0,5.89,0L324,347.3v-2.24Z"/><path class="cls-3" d="M206.87,277.44,121,322.64l-1.77,2.78v2.24a3.24,3.24,0,0,0,1.77,2.77l113.15,65.33a6.31,6.31,0,0,0,5.89,0L324,347.3v-2.24Z"/><path class="cls-7" d="M237.11,394.26a5.89,5.89,0,0,1-2.94-.74L121,328.2a3.07,3.07,0,0,1,0-5.56l82.08-47.38L324,345.06l-83.94,48.46A5.9,5.9,0,0,1,237.11,394.26Z"/><path class="cls-11" d="M207.57,265v9.86l117.24,67.6L407,295a2.3,2.3,0,0,0,1-1.78v-6.34a2.3,2.3,0,0,0-1-1.78L291.57,218.78a4,4,0,0,0-4,0Z"/><polygon class="cls-12" points="207.57 264.98 324.81 332.67 324.81 342.41 207.57 274.81 207.57 264.98"/><path class="cls-9" d="M407.06,285.18a.87.87,0,0,1-.11-.09L291.57,218.78a4,4,0,0,0-4,0l-79.68,46-.29.2,117.24,67.68Z"/><path class="cls-11" d="M203.87,268.24l-81.14,46.85-.84,1.16V325h0a1.41,1.41,0,0,0,.84,1.16l113.15,65.33a4.47,4.47,0,0,0,4,0l81.14-46.85v-8.71Z"/><path class="cls-1" d="M321.06,335.9l-1,.58-13.2,7.62-2.46,1.43-64.47,37.21a4.47,4.47,0,0,1-4,0L122.72,317.41a1.24,1.24,0,0,1,0-2.33l1.08-.62,80.07-46.22,116.18,67.07.24.15Z"/><path class="cls-12" d="M237.89,383.23v8.7a4,4,0,0,1-2-.48L122.72,326.12a1.42,1.42,0,0,1-.83-1.16v-8.71a1.43,1.43,0,0,0,.83,1.16l113.16,65.33A4,4,0,0,0,237.89,383.23Z"/><path class="cls-9" d="M321.06,334.73l-14.61,8.44-2.29,1.32-64.25,37.09a4.47,4.47,0,0,1-4,0l-101.33-58.5q-1.37-.76-2.55-1.47c-4.12-2.52-6.61-4.76-8.2-7.15l-.19-.3a1.48,1.48,0,0,1-.25-.6,1.8,1.8,0,0,1,1.41-2.05,37.93,37.93,0,0,0,7.64-3.18l.1-.06,71.36-41.19Z"/><path class="cls-17" d="M297.1,231.26l-60.59,35a4.4,4.4,0,0,1-3.94-.16l-4.33-2.49c-1.17-.68-1.3-1.7-.29-2.28l60.59-35a4.4,4.4,0,0,1,3.94.16l4.33,2.49C298,229.66,298.11,230.68,297.1,231.26Z"/><line class="cls-17" x1="230.4" y1="264.86" x2="294.65" y2="227.74"/><path class="cls-18" d="M331.57,320.86,391.88,286a1.2,1.2,0,0,0,0-2.28L305.4,233.93a4.37,4.37,0,0,0-3.94,0l-60.31,34.85a1.2,1.2,0,0,0,0,2.28l86.47,49.81A4.37,4.37,0,0,0,331.57,320.86Z"/><line class="cls-18" x1="243.49" y1="272.4" x2="307.74" y2="235.28"/><line class="cls-18" x1="247.8" y1="274.88" x2="312.04" y2="237.76"/><line class="cls-18" x1="252.11" y1="277.37" x2="316.35" y2="240.24"/><line class="cls-18" x1="256.42" y1="279.85" x2="320.66" y2="242.72"/><line class="cls-18" x1="260.73" y1="282.33" x2="324.97" y2="245.21"/><line class="cls-18" x1="265.04" y1="284.81" x2="329.28" y2="247.69"/><line class="cls-18" x1="269.35" y1="287.29" x2="333.59" y2="250.17"/><line class="cls-18" x1="273.65" y1="289.78" x2="337.9" y2="252.65"/><line class="cls-18" x1="277.96" y1="292.26" x2="342.21" y2="255.13"/><line class="cls-18" x1="282.27" y1="294.74" x2="346.52" y2="257.62"/><line class="cls-18" x1="286.58" y1="297.22" x2="350.83" y2="260.1"/><line class="cls-18" x1="290.89" y1="299.7" x2="355.13" y2="262.58"/><line class="cls-18" x1="295.2" y1="302.19" x2="359.44" y2="265.06"/><line class="cls-18" x1="299.51" y1="304.67" x2="363.75" y2="267.54"/><line class="cls-18" x1="303.82" y1="307.15" x2="368.06" y2="270.03"/><line class="cls-18" x1="308.13" y1="309.63" x2="372.37" y2="272.51"/><line class="cls-18" x1="312.43" y1="312.11" x2="376.68" y2="274.99"/><line class="cls-18" x1="316.74" y1="314.59" x2="380.99" y2="277.47"/><line class="cls-18" x1="321.05" y1="317.08" x2="385.3" y2="279.95"/><line class="cls-18" x1="325.36" y1="319.56" x2="389.61" y2="282.43"/><path class="cls-17" d="M205.13,284.52l-60.58,35a4.39,4.39,0,0,1-4-.17l-4.33-2.49c-1.17-.67-1.3-1.69-.29-2.28l60.59-35a4.34,4.34,0,0,1,3.94.16l4.33,2.49C206,282.91,206.14,283.93,205.13,284.52Z"/><line class="cls-17" x1="138.43" y1="318.12" x2="202.68" y2="280.99"/><path class="cls-18" d="M239.6,374.12l60.31-34.85a1.2,1.2,0,0,0,0-2.27l-86.48-49.81a4.34,4.34,0,0,0-3.94,0L149.18,322a1.2,1.2,0,0,0,0,2.27l86.47,49.81A4.34,4.34,0,0,0,239.6,374.12Z"/><line class="cls-18" x1="151.52" y1="325.66" x2="215.77" y2="288.53"/><line class="cls-18" x1="155.83" y1="328.14" x2="220.08" y2="291.02"/><line class="cls-18" x1="160.14" y1="330.62" x2="224.39" y2="293.5"/><line class="cls-18" x1="164.45" y1="333.1" x2="228.69" y2="295.98"/><line class="cls-18" x1="168.76" y1="335.59" x2="233" y2="298.46"/><line class="cls-18" x1="173.07" y1="338.07" x2="237.31" y2="300.94"/><line class="cls-18" x1="177.38" y1="340.55" x2="241.62" y2="303.43"/><line class="cls-18" x1="181.69" y1="343.03" x2="245.93" y2="305.91"/><line class="cls-18" x1="185.99" y1="345.51" x2="250.24" y2="308.39"/><line class="cls-18" x1="190.3" y1="348" x2="254.55" y2="310.87"/><line class="cls-18" x1="194.61" y1="350.48" x2="258.86" y2="313.35"/><line class="cls-18" x1="198.92" y1="352.96" x2="263.17" y2="315.84"/><line class="cls-18" x1="203.23" y1="355.44" x2="267.47" y2="318.32"/><line class="cls-18" x1="207.54" y1="357.92" x2="271.78" y2="320.8"/><line class="cls-18" x1="211.85" y1="360.4" x2="276.09" y2="323.28"/><line class="cls-18" x1="216.16" y1="362.89" x2="280.4" y2="325.76"/><line class="cls-18" x1="220.47" y1="365.37" x2="284.71" y2="328.24"/><line class="cls-18" x1="224.77" y1="367.85" x2="289.02" y2="330.73"/><line class="cls-18" x1="229.08" y1="370.33" x2="293.33" y2="333.21"/><line class="cls-18" x1="233.39" y1="372.81" x2="297.64" y2="335.69"/><path class="cls-3" d="M324.23,328.53a2,2,0,0,1-.44.33,3,3,0,0,1-.88.33,4.29,4.29,0,0,1-3.05-.33,1.21,1.21,0,0,1,0-2.28,2.64,2.64,0,0,1,.64-.28,4.77,4.77,0,0,1,2.57,0,3,3,0,0,1,.72.3C324.7,327.11,324.85,327.9,324.23,328.53Z"/><path class="cls-3" d="M312.39,321.68a1.77,1.77,0,0,1-.45.34,2.81,2.81,0,0,1-.86.34A4.4,4.4,0,0,1,308,322a1.2,1.2,0,0,1,0-2.27,2.79,2.79,0,0,1,.66-.28h0a4.57,4.57,0,0,1,2.54,0,3,3,0,0,1,.73.3C312.85,320.27,313,321.07,312.39,321.68Z"/><path class="cls-3" d="M300.55,314.84a2,2,0,0,1-.45.34,3,3,0,0,1-.88.35,4.4,4.4,0,0,1-3.05-.35,1.2,1.2,0,0,1,0-2.27,2.87,2.87,0,0,1,.67-.28,4.48,4.48,0,0,1,2.54,0,2.73,2.73,0,0,1,.72.3C301,313.43,301.16,314.24,300.55,314.84Z"/><path class="cls-3" d="M288.7,308a2.11,2.11,0,0,1-.45.34,3.22,3.22,0,0,1-.87.34,4.35,4.35,0,0,1-3.05-.34,1.21,1.21,0,0,1,0-2.28,3.28,3.28,0,0,1,.66-.28,4.61,4.61,0,0,1,2.55,0h0a2.65,2.65,0,0,1,.71.29C289.16,306.59,289.32,307.4,288.7,308Z"/><path class="cls-3" d="M276.86,301.17a2,2,0,0,1-.44.34,3.5,3.5,0,0,1-.89.34,4.31,4.31,0,0,1-3-.34,1.21,1.21,0,0,1,0-2.28,3.54,3.54,0,0,1,.66-.28,4.57,4.57,0,0,1,2.54,0,2.93,2.93,0,0,1,.73.29C277.33,299.76,277.48,300.56,276.86,301.17Z"/><path class="cls-3" d="M265,294.34a2.31,2.31,0,0,1-.44.34,3.34,3.34,0,0,1-.87.33,4.43,4.43,0,0,1-3.06-.33,1.21,1.21,0,0,1,0-2.29,2.87,2.87,0,0,1,.65-.27h0a4.51,4.51,0,0,1,2.55,0,2.86,2.86,0,0,1,.72.29C265.48,292.92,265.63,293.72,265,294.34Z"/><path class="cls-3" d="M253.18,287.49a2.34,2.34,0,0,1-.45.35,3.5,3.5,0,0,1-.87.34,4.43,4.43,0,0,1-3.06-.34,1.21,1.21,0,0,1,0-2.28,2.77,2.77,0,0,1,.66-.27h0a4.39,4.39,0,0,1,2.54,0h0a2.79,2.79,0,0,1,.71.29C253.64,286.08,253.79,286.88,253.18,287.49Z"/><path class="cls-3" d="M241.33,280.67a2.92,2.92,0,0,1-.45.33,3.14,3.14,0,0,1-.87.33,4.33,4.33,0,0,1-3-.33,1.2,1.2,0,0,1,0-2.28,2.61,2.61,0,0,1,.66-.27,4.31,4.31,0,0,1,2.54,0,2.86,2.86,0,0,1,.72.29C241.79,279.24,241.94,280.05,241.33,280.67Z"/><path class="cls-3" d="M229.49,273.83a2.5,2.5,0,0,1-.45.33,3.5,3.5,0,0,1-.87.34,4.4,4.4,0,0,1-3-.34,1.21,1.21,0,0,1,0-2.28,2.69,2.69,0,0,1,.65-.27h0a4.4,4.4,0,0,1,2.54,0h0a3,3,0,0,1,.71.29C230,272.4,230.11,273.21,229.49,273.83Z"/><path class="cls-3" d="M217.64,267a2,2,0,0,1-.44.34,2.72,2.72,0,0,1-.88.33,4.25,4.25,0,0,1-3-.33,1.21,1.21,0,0,1,0-2.28,3,3,0,0,1,.66-.27,4.52,4.52,0,0,1,2.55,0,3.5,3.5,0,0,1,.72.29C218.11,265.57,218.26,266.37,217.64,267Z"/><path class="cls-3" d="M309.28,332.68a1.21,1.21,0,0,0,0,2.28,4.32,4.32,0,0,0,3.93,0,1.2,1.2,0,0,0,0-2.28A4.32,4.32,0,0,0,309.28,332.68Z"/><path class="cls-19" d="M323.07,326.28a4.41,4.41,0,0,0-1.16-1,5.16,5.16,0,0,0-5.28.37,14.88,14.88,0,0,0-5.53,6.54,19.22,19.22,0,0,0-1.12,3,1.8,1.8,0,0,0,.22.06,2.82,2.82,0,0,0,.52.1,3.4,3.4,0,0,0,.45,0h.25a16.4,16.4,0,0,1,1.18-3,13.09,13.09,0,0,1,4.75-5.47,4.84,4.84,0,0,1,2.41-.74,3,3,0,0,1,.74.09,2.51,2.51,0,0,1,.68.28,4,4,0,0,1,1.73,2.61,3,3,0,0,0,.88-.33,2,2,0,0,0,.44-.33A6.23,6.23,0,0,0,323.07,326.28Z"/><path class="cls-3" d="M297.44,325.84a1.21,1.21,0,0,0,0,2.28,4.32,4.32,0,0,0,3.93,0,1.2,1.2,0,0,0,0-2.28A4.32,4.32,0,0,0,297.44,325.84Z"/><path class="cls-19" d="M311.22,319.44a4.27,4.27,0,0,0-1.15-1c-1.5-.87-3.38-.72-5.29.37a14.8,14.8,0,0,0-5.5,6.53,16.9,16.9,0,0,0-1.14,3l.06,0h0l.2,0h.06l.39.07a3.55,3.55,0,0,0,.46,0h.25a15.25,15.25,0,0,1,1.19-3,13,13,0,0,1,4.74-5.47,4.81,4.81,0,0,1,2.41-.74,2.66,2.66,0,0,1,.75.1h0a2.36,2.36,0,0,1,.66.27,4.08,4.08,0,0,1,1.74,2.62,2.81,2.81,0,0,0,.86-.34,1.77,1.77,0,0,0,.45-.34A6.27,6.27,0,0,0,311.22,319.44Z"/><path class="cls-3" d="M285.6,319a1.21,1.21,0,0,0,0,2.28,4.32,4.32,0,0,0,3.93,0,1.2,1.2,0,0,0,0-2.28A4.32,4.32,0,0,0,285.6,319Z"/><path class="cls-19" d="M299.38,312.61a4.65,4.65,0,0,0-1.16-1c-1.5-.88-3.36-.73-5.28.37a15,15,0,0,0-5.52,6.53,18.42,18.42,0,0,0-1.13,3,3.63,3.63,0,0,0,.59.13.78.78,0,0,0,.22,0h.64a17.15,17.15,0,0,1,1.18-3,13.14,13.14,0,0,1,4.75-5.47,4.91,4.91,0,0,1,2.41-.74,2.78,2.78,0,0,1,.76.1,2.63,2.63,0,0,1,.65.27,4,4,0,0,1,1.73,2.63,3,3,0,0,0,.88-.35,2,2,0,0,0,.45-.34A6.3,6.3,0,0,0,299.38,312.61Z"/><path class="cls-3" d="M273.76,312.17a1.2,1.2,0,0,0,0,2.27,4.32,4.32,0,0,0,3.93,0,1.2,1.2,0,0,0,0-2.27A4.3,4.3,0,0,0,273.76,312.17Z"/><path class="cls-19" d="M287.54,305.78h0a4.57,4.57,0,0,0-1.15-1c-1.5-.87-3.38-.73-5.3.37a15,15,0,0,0-5.51,6.53,20.86,20.86,0,0,0-1.13,3l.28.08.45.07a4.07,4.07,0,0,0,.5,0h.21a18.81,18.81,0,0,1,1.19-3,13.16,13.16,0,0,1,4.74-5.48,5.05,5.05,0,0,1,2.41-.74,3.1,3.1,0,0,1,.76.1,2.77,2.77,0,0,1,.66.27,4,4,0,0,1,1.73,2.63,3.22,3.22,0,0,0,.87-.34,2.11,2.11,0,0,0,.45-.34A6.14,6.14,0,0,0,287.54,305.78Z"/><path class="cls-3" d="M261.91,305.33a1.21,1.21,0,0,0,0,2.28,4.32,4.32,0,0,0,3.93,0,1.2,1.2,0,0,0,0-2.28A4.32,4.32,0,0,0,261.91,305.33Z"/><path class="cls-19" d="M275.69,298.94a4.28,4.28,0,0,0-1.15-1,5.2,5.2,0,0,0-5.29.37,15,15,0,0,0-5.52,6.53,20.86,20.86,0,0,0-1.13,3l.29.09.45.07.47,0h.25a16.81,16.81,0,0,1,1.17-3,13.25,13.25,0,0,1,4.75-5.48,5.05,5.05,0,0,1,2.41-.74,3.1,3.1,0,0,1,.76.1,3.16,3.16,0,0,1,.66.27,4,4,0,0,1,1.72,2.63,3.5,3.5,0,0,0,.89-.34,2,2,0,0,0,.44-.34A5.85,5.85,0,0,0,275.69,298.94Z"/><path class="cls-3" d="M250.07,298.49a1.21,1.21,0,0,0,0,2.28,4.32,4.32,0,0,0,3.93,0,1.2,1.2,0,0,0,0-2.28A4.32,4.32,0,0,0,250.07,298.49Z"/><path class="cls-19" d="M263.85,292.1a4.48,4.48,0,0,0-1.16-1,5.18,5.18,0,0,0-5.28.37,15.05,15.05,0,0,0-5.52,6.54,18.66,18.66,0,0,0-1.13,3l.22.07a4.54,4.54,0,0,0,.51.09h0a3.4,3.4,0,0,0,.45,0h.25a16.69,16.69,0,0,1,1.18-3,13.18,13.18,0,0,1,4.75-5.48,5,5,0,0,1,2.41-.73,2.64,2.64,0,0,1,.74.1h0a2.74,2.74,0,0,1,.67.26A4.15,4.15,0,0,1,263.7,295a3.34,3.34,0,0,0,.87-.33,2.31,2.31,0,0,0,.44-.34A6,6,0,0,0,263.85,292.1Z"/><path class="cls-3" d="M238.23,291.65a1.21,1.21,0,0,0,0,2.28,4.32,4.32,0,0,0,3.93,0,1.2,1.2,0,0,0,0-2.28A4.32,4.32,0,0,0,238.23,291.65Z"/><path class="cls-19" d="M252,285.27h0a4.44,4.44,0,0,0-1.16-1,5.18,5.18,0,0,0-5.28.36,15,15,0,0,0-5.51,6.54,17.6,17.6,0,0,0-1.14,3l.28.08a3.65,3.65,0,0,0,.46.07,3.55,3.55,0,0,0,.46,0h.25a16.4,16.4,0,0,1,1.18-3,13.14,13.14,0,0,1,4.75-5.47,4.91,4.91,0,0,1,2.41-.74,2.39,2.39,0,0,1,.75.11h0a2.39,2.39,0,0,1,.65.26,4.12,4.12,0,0,1,1.74,2.63,3.5,3.5,0,0,0,.87-.34,2.34,2.34,0,0,0,.45-.35A6.24,6.24,0,0,0,252,285.27Z"/><path class="cls-3" d="M226.38,284.82a1.21,1.21,0,0,0,0,2.28,4.38,4.38,0,0,0,3.93,0,1.2,1.2,0,0,0,0-2.28A4.32,4.32,0,0,0,226.38,284.82Z"/><path class="cls-19" d="M240.16,278.43a4.35,4.35,0,0,0-1.16-1c-1.48-.86-3.36-.73-5.28.37a15.06,15.06,0,0,0-5.52,6.54,19.26,19.26,0,0,0-1.13,3h0l.28.08.29.05a.83.83,0,0,0,.22,0h.64a17.91,17.91,0,0,1,1.19-3,13.09,13.09,0,0,1,4.74-5.48,5,5,0,0,1,2.41-.74,2.37,2.37,0,0,1,.76.11,2.22,2.22,0,0,1,.66.26,4,4,0,0,1,1.73,2.62,3.14,3.14,0,0,0,.87-.33,2.92,2.92,0,0,0,.45-.33A6,6,0,0,0,240.16,278.43Z"/><path class="cls-3" d="M214.54,278a1.21,1.21,0,0,0,0,2.28,4.32,4.32,0,0,0,3.93,0,1.2,1.2,0,0,0,0-2.28A4.32,4.32,0,0,0,214.54,278Z"/><path class="cls-19" d="M228.33,271.59h0a4.24,4.24,0,0,0-1.15-1,5.2,5.2,0,0,0-5.29.37,14.92,14.92,0,0,0-5.51,6.54,19.3,19.3,0,0,0-1.14,3l.29.08a2.22,2.22,0,0,0,.45.07l.47,0h.24a17.44,17.44,0,0,1,1.18-3,13.15,13.15,0,0,1,4.75-5.49,5.05,5.05,0,0,1,2.41-.74,2.31,2.31,0,0,1,.75.11h0a2.33,2.33,0,0,1,.66.26,4.07,4.07,0,0,1,1.73,2.63,3.5,3.5,0,0,0,.87-.34,2.5,2.5,0,0,0,.45-.33A6.18,6.18,0,0,0,228.33,271.59Z"/><path class="cls-3" d="M202.7,271.14a1.21,1.21,0,0,0,0,2.28,4.32,4.32,0,0,0,3.93,0,1.2,1.2,0,0,0,0-2.28A4.32,4.32,0,0,0,202.7,271.14Z"/><path class="cls-19" d="M216.48,264.75a4.64,4.64,0,0,0-1.15-1,5.2,5.2,0,0,0-5.29.37,15,15,0,0,0-5.53,6.54,19.6,19.6,0,0,0-1.12,3l.22.07a4.21,4.21,0,0,0,.49.09h.05l.46,0h.23a17.15,17.15,0,0,1,1.18-3,13.24,13.24,0,0,1,4.75-5.48,5,5,0,0,1,2.41-.74,2.61,2.61,0,0,1,.75.11,3,3,0,0,1,.67.26,4.08,4.08,0,0,1,1.72,2.62,2.72,2.72,0,0,0,.88-.33,2,2,0,0,0,.44-.34A6.06,6.06,0,0,0,216.48,264.75Z"/></g><g id="Note-3" data-name="Note"><polygon class="cls-3" points="138.76 316.74 192.71 285.6 250.51 318.97 196.56 350.11 138.76 316.74"/><polygon class="cls-7" points="147.86 320.51 139.19 315.18 193.28 283.95 201.95 289.28 147.86 320.51"/><polygon class="cls-20" points="147.86 320.51 139.19 315.18 193.28 283.95 201.95 289.28 147.86 320.51"/><path class="cls-7" d="M239.78,307.78h0L202,289.28l-54.09,31.23,47.92,23.16,46.81-27c2.86-1.66,5.62-4.45,5.45-8.11C246.42,309.35,243.79,309.64,239.78,307.78Z"/><path class="cls-21" d="M239.78,307.78h0L202,289.28l-54.09,31.23,47.92,23.16,46.81-27c2.86-1.66,5.62-4.45,5.45-8.11C246.42,309.35,243.79,309.64,239.78,307.78Z"/><path class="cls-6" d="M184.13,316.69c.23,0,.21-.43.11-.55a1.61,1.61,0,0,0-1-.6,21,21,0,0,0-1.83-2,22.55,22.55,0,0,1-2-2,3.08,3.08,0,0,0-.75-1.08c-.44-.39-.78,0-.54.51a6.31,6.31,0,0,0,.52.82c.63,1.75-.16,5.17-1.91,4-.58-.38-1-1-1.75-.54a2,2,0,0,0-.76,1.75,1.37,1.37,0,0,0-1.53-.31,2.11,2.11,0,0,0-1.15,1.93c-.52-.45-1.22-.92-1.78-.4a2.78,2.78,0,0,0-.51,2,5.79,5.79,0,0,0-2.69-2.41c-1.54-.49-2.34,1-2.74,2.22-.06.2.15.51.26.23.46-1.17,1.26-2.44,2.67-1.79a6.82,6.82,0,0,1,2.57,2.7c.14.22.37.1.37-.14a4.21,4.21,0,0,1,.21-2c.49-.83,1.32,0,1.79.48.18.18.36,0,.35-.23-.1-1.27,1.25-2.76,2.26-1.27.15.21.53.28.52-.09,0-.55-.09-1.47.42-1.85.67-.49,1,.32,1.53.6a1.79,1.79,0,0,0,2.3-.73,4.59,4.59,0,0,0,.7-2.88c.4.39.81.76,1.21,1.14a18.78,18.78,0,0,1,1.4,1.56,2.24,2.24,0,0,0-1,2.47c.34,1.21,2.32,3.11,3.48,1.69C185.52,319,184.86,317.7,184.13,316.69Zm-.76,2.61a1.72,1.72,0,0,1-1.18-1.37,1.06,1.06,0,0,1,.9-1.27C183.47,317.19,185,319.54,183.37,319.3Z"/><path class="cls-6" d="M199,301.7c-.22-.41-.73-.35-.63.17.24,1.16-.8,1.33-1.7,1.14a4.53,4.53,0,0,1-2.39-1.54,5.83,5.83,0,0,0-.45-.51c-.44-.43-.91.13-.55.58.14.18.29.36.45.53.64.88,1.13,2.3.44,3.14-1,1.27-2.18-.62-2.68-1.43-.34-.55-.92-.16-.63.39a6.55,6.55,0,0,1,.49,1.81c.08.48.36,1.65,0,2.08-.7.83-2.21-1.4-2.45-2.22v0a1.3,1.3,0,0,0,0-.13h0s0-.09,0-.13c-.15-.47-.89-.55-.81.06a4.45,4.45,0,0,1-.39,3.18c-.66,1.09-2,.31-2.64-.54a2.16,2.16,0,0,0-.44-.67c-.41-.42-1-.2-.75.42a4.14,4.14,0,0,0,.37.61,4.69,4.69,0,0,1-.15,3.09c-.24.54-.62.65-.74,0a4.53,4.53,0,0,1,0-1.22c.05-.46,0-1.35.73-1,.19.08.21-.28.15-.37-.4-.56-1.07-.82-1.42-.11a4.65,4.65,0,0,0-.4,1.87c0,1,.37,2.6,1.69,2.35,1-.2,1.2-1.65,1.25-2.48,0-.3,0-.63,0-1,.88.64,1.94,1,2.77.3a3.38,3.38,0,0,0,1-2.37c.79,1.06,1.89,1.92,2.77,1.34.65-.44.52-1.58.45-2.24,0-.32-.07-.64-.13-1,.81.78,1.8,1.23,2.73.19a2.75,2.75,0,0,0,.38-2.63,4.52,4.52,0,0,0,2.27.76,2,2,0,0,0,1.63-.54A1.66,1.66,0,0,0,199,301.7Z"/><path class="cls-6" d="M225.2,312.57c.09-.27-.13-.78-.42-.81h-.1l-.24-.34a27.68,27.68,0,0,0-5.23-5.14c-.38-.31-.69.12-.5.51a4.08,4.08,0,0,1,.63,1.27c0,.81-.73.75-1.21.54a4.52,4.52,0,0,1-.92-.6,6,6,0,0,0-1.36-1.54c-.39-.35-.73.18-.5.55a8.86,8.86,0,0,0,1.17,1.47,1.29,1.29,0,0,1,.1.35,5.89,5.89,0,0,1-.22,2.17c-.5,1.64-1.9-.47-2.56-1a1.16,1.16,0,0,0-1.89.51,3.69,3.69,0,0,0-.08,2c-.53-.48-1.14-.86-1.69-.38s-.52,1.51-.47,2.37a2.58,2.58,0,0,0-1.82-.8c-.72.07-1,.67-1,1.31-.94-1-2.36-2.24-3.07-.71-.35.76.12,2.32-.6,2.88-.42.32-1-.16-1.51-.72a2.89,2.89,0,0,0-1-1.2c-.58-.39-.73.41-.41.77.13.17.33.41.56.68a4.84,4.84,0,0,1,.18,2.31c-1.37-.25-2.36-1.53-3.19-2.59a13.45,13.45,0,0,0-1-1.24,8.54,8.54,0,0,0-2.11-2c-.6-.37-.83.5-.39.85a15.28,15.28,0,0,1,2.12,2c.24.29.46.59.69.89a5.51,5.51,0,0,1,1.08,3c0,2.44-2.82.62-3.79-.13-.55-.42-.72.41-.41.77.72.84,2.33,3.41-.08,3.28-1.21-.07-2.42-1.06-3.37-1.73-.45-.31-.49.41-.35.66.53.88.85,3.28-.31,3.82-.16.07-.18.48.05.44,1.37-.25,1.48-2.13,1.19-3.54,1.32.95,3.18,2.05,4.46.86a2.08,2.08,0,0,0,.18-2.64c1.35.67,2.91,1,3.33-.68a4,4,0,0,0,0-1.89,4.24,4.24,0,0,0,2.51,1c.24,0,.36-.2.38-.41a10.14,10.14,0,0,0,0-1.91c.66.49,1.36.7,1.9,0s.4-1.73.56-2.6c.3-1.66,2,.5,2.5,1,.29.3.7.23.69-.24s0-1.47.74-1.34a3.33,3.33,0,0,1,1.48,1.06c.2.21.66.31.69-.11a11.41,11.41,0,0,1,0-2.11c.3-1.23,1.25.14,1.81.56.38.29.67-.09.57-.47a4.93,4.93,0,0,1-.29-2.24c.33-1.46,1.21-.11,1.74.38s1.77,1.23,2.46.48a4.75,4.75,0,0,0,.64-3,3.41,3.41,0,0,0,1.16.48,1.38,1.38,0,0,0,1.61-.85,1.45,1.45,0,0,0,0-.85,22.52,22.52,0,0,1,2.84,2.77c.25.28.48.58.71.88a1.75,1.75,0,0,0-1.83,1.73,4.52,4.52,0,0,0,1.65,3.32c.74.62,1.74.84,2.19-.2A4.52,4.52,0,0,0,225.2,312.57Zm-.14,3.58c-.7.78-1.67-.81-1.9-1.35-.58-1.36.15-2,1.36-2.06a6.64,6.64,0,0,1,.47.92C225.25,314.31,225.61,315.54,225.06,316.15Z"/></g><g class="cls-22"><path d="M261.21,318.89a.17.17,0,1,0-.34,0,1.61,1.61,0,0,1-1.68,1.53,6.51,6.51,0,0,1-1.92,0c-.11,0-.18.05-.21.15a9,9,0,0,1-.54,1.74c-.43-.33-1-.7-1.37-.17s-.09,2.5-1.19,1.41c-.11-.11-.22-.1-.31,0-.62,1-1.31,1-1.81.41a3.81,3.81,0,0,0-.5-1c-.18-.25-.35.12-.3.29a5.46,5.46,0,0,0,.27.84,2.85,2.85,0,0,1-.56,2.26c-1.06.76-2.3-1.05-2.46-1.91h0a.29.29,0,0,1,0-.09c-.1-.39-.51-.19-.45.16a.43.43,0,0,1,0,.11,3.77,3.77,0,0,1-.37,2.51c-.58,1-1.31.5-1.94-.24-.19-.23-.34.06-.33.24,0,1.2-.95,2.88-2.08,1.43-.14-.19-.33,0-.37.14-.13.47-.24.94-.37,1.41a5,5,0,0,1-.31,1c0,.5-.21.55-.49.16s-.7-.91-1.27-.85c-.77.07-.88,1.13-.84,1.88-.45-.23-1-.47-1.44-.2s-.57,1-.65,1.51c-.37-.34-.8-.68-1.28-.38s-.64,1.15-.76,1.75a2.21,2.21,0,0,1-1.27-1.08c-.11-.21-.27,0-.28.17,0,.57.15,1.56-.14,2.07-.6,1-1.86-.8-2.11-1.45-.13-.34-.51-.26-.5.1,0,1.06.3,4.31-1.38,4.16a1.82,1.82,0,0,1-.8-.31,3.73,3.73,0,0,0-2.08-4.52.23.23,0,0,0-.31.12c-.57,1.44.45,3.55,1.72,4.71a2.76,2.76,0,0,1-.5.65c-.58.56-1.42.2-1.91.79-.34.41-.14.45-.66.81s-.67.22-1.11-.17a3,3,0,0,1-.54-.65c-.14-.21-.33,0-.35.18,0,.46-.08,1.42-.66,1.58s-1.06-.42-1.38-.7c-.16-.14-.32-.05-.37.15a6.21,6.21,0,0,0-.12.85,2.88,2.88,0,0,1-.07.59c-.17.46-.88,1.28-1.24.05-.1-.34-.49-.24-.48.09a3.46,3.46,0,0,1-.9,2.48,1.85,1.85,0,0,1-1.21.62h0a1.79,1.79,0,0,0,.12-.53c0-.62-.24-1.64-.93-1.82s-1.09.38-1.23.91a1.68,1.68,0,0,0,.92,1.82l.09,0a6.28,6.28,0,0,1-1.41.67,4.33,4.33,0,0,0-1.22.49c-.14.11-.26.48-.38.54-1.09.59-.55-.14-1.08-.12a1.7,1.7,0,0,0-1.75,1.38c-.89-.9-1.67.46-2,1.46-.38-.55-.85-1.43-1.48-1.58s-1.27.45-1.71.83c0,0,0,.07,0,.05.59-.44,1.23-.95,1.92-.42a8,8,0,0,1,1.22,1.6c.07.09.17,0,.19-.09.16-.67.89-2.54,1.76-1.28.11.16.24,0,.28-.1.26-1.08.79-1.38,1.84-1.12.42.11.52.2.91-.05s.34-.53.66-.71A4.6,4.6,0,0,1,214,348a12.61,12.61,0,0,0,1.44-.56,3.46,3.46,0,0,0,.82-.58c1.57.36,2.73-1.28,3-2.83a.93.93,0,0,0,1.34.12c.53-.41.49-1.23.55-1.91.47.39,1.09.79,1.66.49a1.78,1.78,0,0,0,.72-1.5c.58.67,1.44,1.25,2.15.49.53-.56-.55-.51,1.09-1.08.2-.08.43,0,.66-.09a2.63,2.63,0,0,0,1.08-1.11,1.21,1.21,0,0,0,.09-.2,3.24,3.24,0,0,0,.61.36c2.26,1,2.45-1.81,2.41-3.67.48.72,1.15,1.41,1.85,1.36,1.07-.08.88-1.59.73-2.6a2.78,2.78,0,0,0,1.24.86c.09,0,.18-.05.21-.14a12.17,12.17,0,0,1,.25-1.23c.37-.9,1-.58,1.49-.09.1.09.2,0,.22-.12.09-.44.16-1.34.65-1.55s1.06.33,1.39.57c.15.11.29-.07.29-.22,0-.64-.2-2.05,1-1.39.38.21.61.68,1,.89a.19.19,0,0,0,.26-.05,8.59,8.59,0,0,0,.89-2.79c1.2,1.35,2.4-.15,2.53-1.67.6.66,1.43,1.17,2.17.33a3.08,3.08,0,0,0,.68-2c.62,1,1.58,1.78,2.6,1.34a2.14,2.14,0,0,0,1-2.4l.25.11c.81.27,1.29-.32,1.59-1,.2.15.4.29.59.46,0,0,.14.05.18,0a1.89,1.89,0,0,0,.65-1.16,2.7,2.7,0,0,1,.11-.71c.31-.54.71,0,1,.31a.22.22,0,0,0,.29,0c.58-.55.37-1.06.57-1.76.15-.54.17-.37.78-.19a3.72,3.72,0,0,0,1.1.17C260.8,321.31,261.41,320.39,261.21,318.89Zm-46.15,26.39c0-.38.34-.87.76-.75.68.2.64,1.1.32,1.65C215.65,346.05,215.11,345.75,215.06,345.28Zm11.83-10.35a3,3,0,0,1,1.56,3.36A4.44,4.44,0,0,1,226.89,334.93Z"/><path d="M287.32,334c0-.24-.31-.24-.34,0a1.6,1.6,0,0,1-1.68,1.53,6.17,6.17,0,0,1-1.92,0,.19.19,0,0,0-.22.15,8.64,8.64,0,0,1-.53,1.75c-.44-.34-1-.71-1.37-.18s-.1,2.51-1.19,1.41a.18.18,0,0,0-.31,0c-.62,1-1.31,1-1.81.41a4.16,4.16,0,0,0-.5-1c-.18-.25-.35.12-.31.3a6.36,6.36,0,0,0,.28.84,2.89,2.89,0,0,1-.56,2.26c-1.06.75-2.3-1.05-2.46-1.92h0a.29.29,0,0,0,0-.09c-.09-.38-.5-.18-.44.16a.5.5,0,0,0,0,.12,3.8,3.8,0,0,1-.37,2.5c-.58,1-1.31.5-1.94-.24-.19-.22-.34.07-.34.25,0,1.19-.94,2.87-2.07,1.42-.15-.18-.33,0-.37.14-.13.47-.24.94-.37,1.41a5.48,5.48,0,0,1-.31,1c-.05.5-.22.55-.49.17-.42-.25-.71-.91-1.27-.86-.78.07-.88,1.14-.84,1.88-.46-.23-1-.47-1.44-.19s-.57,1-.66,1.5c-.36-.34-.8-.68-1.27-.37s-.65,1.15-.77,1.74a2.16,2.16,0,0,1-1.26-1.08c-.12-.2-.27,0-.28.17,0,.57.15,1.57-.14,2.07-.6,1-1.86-.79-2.12-1.45-.13-.33-.5-.26-.49.1,0,1.06.3,4.31-1.38,4.16a1.71,1.71,0,0,1-.8-.31,3.73,3.73,0,0,0-2.09-4.52.21.21,0,0,0-.3.12c-.57,1.44.44,3.55,1.71,4.72a2.28,2.28,0,0,1-.49.64c-.59.56-1.42.2-1.92.8-.33.4-.14.45-.66.8s-.66.23-1.11-.17a3,3,0,0,1-.53-.65c-.15-.21-.34,0-.35.18,0,.46-.08,1.42-.66,1.58s-1.07-.41-1.38-.69c-.16-.15-.32-.06-.37.14a6.14,6.14,0,0,0-.12.86,2.88,2.88,0,0,1-.07.59c-.17.46-.88,1.27-1.24,0-.1-.34-.49-.24-.48.1a3.49,3.49,0,0,1-.9,2.48,1.89,1.89,0,0,1-1.22.61h0a1.53,1.53,0,0,0,.13-.53c0-.61-.24-1.64-.93-1.82a1.1,1.1,0,0,0-1.23.92,1.66,1.66,0,0,0,.91,1.81l.1.05a7,7,0,0,1-1.41.66,4.22,4.22,0,0,0-1.22.49c-.15.11-.26.49-.38.55-1.09.59-.55-.15-1.09-.13a1.69,1.69,0,0,0-1.74,1.39c-.89-.91-1.67.45-2,1.45-.39-.55-.86-1.42-1.49-1.58s-1.27.45-1.7.84c0,0,0,.07,0,0,.6-.44,1.24-.95,1.93-.41a7.9,7.9,0,0,1,1.22,1.59c.07.09.17,0,.19-.09.16-.67.88-2.53,1.76-1.27.11.15.24,0,.27-.11.26-1.08.8-1.38,1.84-1.11.43.1.52.19.91-.06s.35-.53.66-.71a4.6,4.6,0,0,1,.52-.19,10.6,10.6,0,0,0,1.45-.56,3.68,3.68,0,0,0,.82-.58c1.56.36,2.73-1.28,3-2.83a.94.94,0,0,0,1.34.13c.53-.42.48-1.24.55-1.92.47.4,1.08.79,1.66.49a1.8,1.8,0,0,0,.72-1.5c.57.68,1.44,1.25,2.14.5.53-.57-.54-.51,1.1-1.09.2-.07.43,0,.66-.09a2.69,2.69,0,0,0,1.08-1.11,1.21,1.21,0,0,0,.09-.2,3.24,3.24,0,0,0,.61.36c2.26,1,2.44-1.81,2.41-3.66.47.71,1.15,1.41,1.85,1.36,1.07-.08.88-1.59.73-2.61a2.91,2.91,0,0,0,1.23.87.18.18,0,0,0,.21-.14,12.38,12.38,0,0,1,.26-1.24c.37-.9,1-.57,1.49-.09.09.09.2,0,.22-.12.09-.44.16-1.34.65-1.54s1.06.32,1.39.56c.15.11.29-.07.29-.21,0-.65-.2-2.05,1-1.4.38.21.61.68,1,.9a.2.2,0,0,0,.26-.06,8.59,8.59,0,0,0,.89-2.79c1.19,1.35,2.4-.14,2.53-1.67.6.67,1.43,1.17,2.17.33a3.06,3.06,0,0,0,.68-2c.61,1,1.58,1.78,2.6,1.34a2.12,2.12,0,0,0,1-2.4,1.15,1.15,0,0,0,.25.12c.82.26,1.3-.33,1.59-1a6.8,6.8,0,0,1,.6.46.15.15,0,0,0,.18,0,1.78,1.78,0,0,0,.64-1.16c.05-.19,0-.54.11-.71.32-.53.72,0,1.05.32.07.06.21.11.29,0,.59-.55.38-1,.58-1.76.15-.54.16-.36.78-.19a3.16,3.16,0,0,0,1.1.17C286.91,336.39,287.52,335.46,287.32,334Zm-46.15,26.39c0-.38.34-.87.76-.75.68.2.64,1.1.32,1.66C241.75,361.13,241.21,360.82,241.17,360.35ZM253,350a3,3,0,0,1,1.56,3.36A4.52,4.52,0,0,1,253,350Z"/><path d="M226.65,352.75a2.42,2.42,0,0,0-1.42.56,19.46,19.46,0,0,1-1.76-1.71c-.18-.25-.36.1-.35.27a2.22,2.22,0,0,1-.69,1.6c-.4.38-.69.28-1.16.18s-.74.18-.76.59c-.71-.28-1.09.47-1.31,1.16a.88.88,0,0,0-1.1-.2,2.67,2.67,0,0,0-.81,1.29c-.58-.41-.86-1.55-1.74-1.37-.71.16-1.27,1.17-1.42,1.82,0,.18.14.21.19,0,.14-.63.89-1.8,1.66-1.43.59.28.72,1.09,1.3,1.39.07,0,.13,0,.16-.08.35-.82.8-1.85,1.74-.93.1.1.2,0,.22-.13.17-.58.46-1.53,1.22-1,.17.13.26-.14.24-.28-.1-.64.45-.31.82-.25a1.06,1.06,0,0,0,.85-.24,2.73,2.73,0,0,0,1-1.61c.31.32.67.6,1,.9.12.11.27.24.42.39a1.45,1.45,0,0,0-.09.22,1.47,1.47,0,0,0,1.06,1.84c.12,0,.18-.06.22-.16a1.85,1.85,0,0,0-.49-1.9c.35-.2.76-.23,1.1-.43C226.88,353.2,226.9,352.73,226.65,352.75Zm-.89,2.39a.78.78,0,0,1-.5-1A1.74,1.74,0,0,1,225.76,355.14Z"/><path d="M239.05,342.57c0-.09-.1,0-.11.05,0,.34,0,.8-.41.9s-.75-.21-1-.37c-.11-.07-.18.11-.19.19s-.12.93-.34,1.08-.79-.46-1-.66-.29,0-.29.17c0,.56-.3,1.9-1.06,1.78a1,1,0,0,1-.48-.24,2.36,2.36,0,0,0-.87-2.14c-.19-.12-.29.1-.31.25a3.38,3.38,0,0,0,.74,2.31,1.76,1.76,0,0,1-.6,1.21c-.46.33-.83,0-1.3,0-.31,0-.45.3-.53.58-.6-.41-1,.22-1.28.8-.77-.59-1.39.07-1.56.87a1.89,1.89,0,0,0-1.17-.47c-.67.05-.58.81-.49,1.28,0,.22.24,0,.23-.11-.1-1.06,1.1-.27,1.47.1.18.17.39,0,.37-.21,0-.74.46-1.42,1.14-.79a.17.17,0,0,0,.25-.07c.2-.45.45-1.36,1.05-.8.12.11.24-.05.26-.16.15-.91.73-.32,1.32-.41a1.51,1.51,0,0,0,1.06-1.11,2.77,2.77,0,0,0,.12-.41,1.32,1.32,0,0,0,.72.28c1,.05,1.21-1.13,1.25-2,.28.34.65.7,1,.52s.45-.85.48-1.33c.37.24.89.51,1.27.22S239.18,343,239.05,342.57Z"/><path d="M240.51,342.51s-.08,0-.11,0l0,.06,0,0s0,0,0,0a.3.3,0,0,1-.08.08l-.05,0,0,0h0l-.11,0s0,0,0,0h-.19a1,1,0,0,1-.26-.16.09.09,0,0,0-.1,0,.21.21,0,0,0-.07.11.22.22,0,0,0,.06.24.77.77,0,0,0,.6.16.68.68,0,0,0,.43-.46A.15.15,0,0,0,240.51,342.51Z"/><path d="M242.23,340.68c0-.06-.06,0-.06,0a1.36,1.36,0,0,1-.39,1,2.5,2.5,0,0,1-1,.3c-.28.06-.55.13-.82.21s-.15.4,0,.35c.46-.15.94-.21,1.4-.34a1.43,1.43,0,0,0,.45-.21,1,1,0,0,0,.31-.53A3,3,0,0,0,242.23,340.68Z"/><path d="M266.37,326.47a.14.14,0,0,0-.26,0c-.34,1.05-1.18.95-1.7,0-.1-.18-.22.05-.22.16a4.6,4.6,0,0,1-.5,2.4c-.53.82-.88-.16-1.48-.14s-.74.69-.78,1.26c-.52-.32-1,0-1.26.67-.61-.54-1.08-.16-1.36.59-.32-.28-.76-.79-1.07-.71-.59.16-.68,3.21-1.57,1.39-.05-.09-.09-.14-.14-.15a.48.48,0,0,0-.15-.32,1.22,1.22,0,0,0-2,.57c-.45,1-.81,4.61-2.38,2.32-.13-.18-.32,0-.32.15,0,.77-.09,1.83-1,.91-.13-.13-.27.08-.27.19,0,.52,0,1.83-.87,1.22a2.32,2.32,0,0,1-.82-1.35c-.05-.24-.3,0-.26.15a4,4,0,0,1-.61,2.75c-.09.15.05.42.18.21a4.61,4.61,0,0,0,.76-2.08c.29.56.73,1.11,1.25,1s.69-.8.73-1.37c.93.78,1.19-.05,1.27-1,.6.66,1.34.84,2-.12a6.16,6.16,0,0,0,.48-1.5,1.49,1.49,0,0,0,.47,1c.94.9,1.54-.55,1.74-1.62.35.44.8.66,1.22,0,.18-.28.41-1.55.55-1.56s.81.67.94.74.26,0,.3-.17c0-.6.36-.73,1-.4a.2.2,0,0,0,.36-.12c0-.53.32-.71,1-.56.16.23.42.14.42-.15s-.06-.7.07-.87c.34-.46.63,0,.91.12a.84.84,0,0,0,1-.35,3.86,3.86,0,0,0,.56-2.54c.61.85,1.6.93,1.88-.17a11.35,11.35,0,0,1,2.48,4.13c.1.29.36.05.35-.16C269.08,329.1,267.37,327.88,266.37,326.47Zm-11.19,7.67c-.76.58-.81-.85-.57-1.27a1,1,0,0,1,1.15-.56v.05A2.46,2.46,0,0,1,255.18,334.14Z"/><path d="M246.19,354.22a12.48,12.48,0,0,0-2.92-5.54c-.14-.15-.4-.22-.47,0-.19.67.09,2.36-.72,2.61-.6.19-.94-.91-1.46-1.22a.19.19,0,0,0-.28.11c-.43.81-.31,2-.83,2.73-.2-.29-.47-.58-.81-.39s-.39.68-.45,1.09c-.68-.48-1.15.06-1.39.84-.77-.73-1.3-.2-1.73.7a1.61,1.61,0,0,0-1-.7.2.2,0,0,0-.21.13,9.83,9.83,0,0,0-.34,1.32c-.33,1.18-1,0-1.27-.51-.08-.15-.29-.21-.37,0a8.51,8.51,0,0,0-.37,1.72,2,2,0,0,1-.15.56.8.8,0,0,1-1,.2c-.32-.17-.5-.82-.58-1.15s-.44-.26-.43.05c0,1,.21,3-.93,3.53a1,1,0,0,1-.75,0,2.12,2.12,0,0,0,.27-1.64c-.29-1-1.27-.81-1.39.18a2.47,2.47,0,0,0,.41,1.53,3.86,3.86,0,0,1-1.48,1.23c-.21.11-.14.66.11.54a5,5,0,0,0,1.74-1.35,1.11,1.11,0,0,0,1.28.18c1-.48,1.18-1.82,1.2-3,.32.54.79,1,1.38.74.87-.32.82-1.58,1-2.45.31.57.78,1.26,1.37.87.31-.2.4-.72.48-1.05,0-.14.07-.77.19-.85s.74.55.87.68a.19.19,0,0,0,.33-.05c.29-.67.68-1.57,1.46-.6.13.16.32,0,.36-.13.07-.36.28-1.55,1.07-.72.14.15.33.06.36-.13s.17-1.48.69-.66c.08.13.23.2.35.07.72-.74.6-1.9,1-2.82.53.5.73,1.53,1.64,1.19s.9-1.49,1-2.4a15.43,15.43,0,0,1,2.35,4.67C245.8,354.86,246.3,354.73,246.19,354.22Z"/><path d="M256.42,342.71a1,1,0,0,0-.55.91c-.32-.31-.66-.79-1.1-.52a1,1,0,0,0-.39.82.89.89,0,0,0-1.29-.2c-.4.33-.36.78-.39,1.23a.73.73,0,0,0-.41-.33c-.28-.05-.46.22-.57.43a6.76,6.76,0,0,0-.45,1.47,3.83,3.83,0,0,0-1.49-1.21c-.88-.28-1.1.88-1.18,1.49,0,.35.39.56.44.13s.2-1.28.87-.92a6.36,6.36,0,0,1,1.33,1.21c.12.12.26.08.31-.09.15-.43.2-.89.34-1.32.05-.16.13-.5.29-.58s.38.3.44.43.27.13.32-.06c.1-.38,0-.85.16-1.21a.63.63,0,0,1,.76-.3,1.67,1.67,0,0,1,.58.6c.17.25.31-.12.29-.27,0-.3-.08-1.14.43-.94.33.14.52.59.83.78.16.09.22-.2.21-.29a1.64,1.64,0,0,1,.29-1.07C256.52,342.84,256.54,342.67,256.42,342.71Z"/><path d="M278.44,328c-.11-.15-.26,0-.26.14a8.21,8.21,0,0,1-.25,2.37c-.13.44-.35.87-.86.92s-.76-.35-1.16-.53c-1.17-.54-1.55,1-1.62,1.93-.43-.18-.8-.1-1,.29-.69-.64-1.21.11-1.36.92-.37-.38-.7-.72-1.22-.22s-.4,1.08-.44,1.67c-.5-.49-1-1.08-1.75-.58s-.63,1.37-.74,2.11a6.84,6.84,0,0,1-1.09-.68c-.05,0-.12,0-.15,0-.15.21-.18.38-.31.59a.88.88,0,0,1-.48.69,3,3,0,0,1-.95-.75.18.18,0,0,0-.31,0c-.2.34-.24.73-.41,1.08-.34.71-.72.5-1.27,0-.19-.17-.36,0-.4.19a12.72,12.72,0,0,1-.19,1.38c-.46,1.32-1.67-.15-2-.75-.12-.25-.4-.12-.4.12,0,.74.45,2.58-.39,2.89-.19.07-.16.54.07.47.88-.26.85-1.44.8-2.39.45.62,1.12,1.19,1.82.87s.69-1.14.75-1.83c.38.29.84.54,1.26.2a2.78,2.78,0,0,0,.65-1.58,6.39,6.39,0,0,0,1.13.68.14.14,0,0,0,.17-.07,6.55,6.55,0,0,0,.37-.86c.37-.72.77-.07,1.34.14.1,0,.17-.06.19-.15.13-.57.06-1.79.74-2s1.15.52,1.52.9a.19.19,0,0,0,.33-.1c.08-.28,0-.65.13-.91s.66-.79.92-.71l.34.33c.19.17.3-.17.3-.3-.11-.63.21-.89.95-.79.16.19.32,0,.32-.21.15-.46.41-.51.75-.16.12.1.22,0,.25-.14a7.45,7.45,0,0,1,.26-1.33.84.84,0,0,1,.94-.64c.16,0,.39.35.52.43a1.2,1.2,0,0,0,1.51,0c.78-.64.74-2,.67-3.05.93,1.17,2.13,2.43,2.31,3.92,0,.28.3.18.31-.06C281.24,330.72,279.35,329.27,278.44,328Z"/></g><g class="cls-22"><path d="M308.06,237.6c0-.25-.31-.24-.34,0a1.61,1.61,0,0,1-1.68,1.53,6.19,6.19,0,0,1-1.92,0c-.11,0-.18.06-.21.16a9.25,9.25,0,0,1-.54,1.74c-.43-.33-1-.7-1.37-.17s-.09,2.5-1.19,1.41a.18.18,0,0,0-.31,0c-.62,1-1.31,1-1.81.42a3.81,3.81,0,0,0-.5-1c-.18-.25-.35.12-.3.29a5.83,5.83,0,0,0,.27.84,2.85,2.85,0,0,1-.56,2.26c-1.06.75-2.3-1-2.46-1.91h0a.29.29,0,0,1,0-.09c-.1-.39-.51-.19-.45.16a.36.36,0,0,1,0,.11,3.77,3.77,0,0,1-.37,2.51c-.58,1-1.31.49-1.94-.25-.19-.22-.34.07-.33.25,0,1.19-.95,2.88-2.08,1.43-.14-.19-.33,0-.37.14-.13.47-.24.94-.37,1.4a4.85,4.85,0,0,1-.31,1c-.05.49-.21.55-.49.16s-.7-.91-1.27-.86c-.77.08-.88,1.14-.84,1.89-.45-.24-1-.48-1.44-.2s-.57,1-.65,1.5c-.37-.33-.8-.67-1.28-.37s-.64,1.15-.76,1.75a2.21,2.21,0,0,1-1.27-1.08c-.11-.21-.27,0-.28.16,0,.58.15,1.57-.14,2.08-.6,1-1.86-.8-2.11-1.46-.13-.33-.51-.25-.5.11,0,1.06.3,4.31-1.38,4.16a2,2,0,0,1-.8-.31,3.75,3.75,0,0,0-2.08-4.53.22.22,0,0,0-.31.13c-.57,1.43.45,3.54,1.72,4.71a2.76,2.76,0,0,1-.5.65c-.58.56-1.42.19-1.91.79-.34.41-.14.45-.66.8s-.67.23-1.11-.17a2.74,2.74,0,0,1-.54-.64c-.14-.22-.33,0-.35.18,0,.46-.08,1.41-.66,1.58s-1.06-.42-1.38-.7c-.16-.15-.32-.05-.37.14a6.14,6.14,0,0,0-.12.86,2.88,2.88,0,0,1-.07.59c-.17.46-.88,1.28-1.24,0-.1-.35-.49-.25-.48.09a3.46,3.46,0,0,1-.9,2.48,1.85,1.85,0,0,1-1.21.62h0a1.86,1.86,0,0,0,.12-.53c0-.62-.24-1.64-.93-1.82a1.09,1.09,0,0,0-1.23.91,1.68,1.68,0,0,0,.92,1.82l.09,0a5.84,5.84,0,0,1-1.41.66,4.68,4.68,0,0,0-1.22.5c-.14.11-.26.48-.38.54-1.09.59-.55-.15-1.08-.12a1.69,1.69,0,0,0-1.75,1.38c-.89-.9-1.67.46-2,1.46-.38-.55-.85-1.43-1.48-1.59s-1.27.45-1.71.84c0,0,0,.07,0,.05.59-.44,1.23-1,1.92-.42a8,8,0,0,1,1.22,1.6c.07.09.17,0,.19-.1.16-.66.89-2.53,1.76-1.27.11.15.24,0,.28-.1.26-1.08.79-1.38,1.84-1.12.42.11.52.2.91-.05s.34-.53.66-.71a3.24,3.24,0,0,1,.52-.19,11,11,0,0,0,1.44-.57,3.17,3.17,0,0,0,.82-.57c1.57.36,2.73-1.29,3-2.83a.93.93,0,0,0,1.34.12c.53-.41.49-1.24.55-1.91.47.39,1.09.79,1.66.48a1.76,1.76,0,0,0,.72-1.49c.58.67,1.44,1.25,2.15.49.53-.57-.55-.51,1.09-1.09.2-.07.43,0,.66-.08a2.75,2.75,0,0,0,1.08-1.11c0-.07.06-.14.09-.2a2.72,2.72,0,0,0,.61.35c2.26,1,2.45-1.81,2.41-3.66.48.72,1.15,1.41,1.85,1.36,1.07-.08.88-1.59.73-2.6a2.94,2.94,0,0,0,1.24.86c.09,0,.18,0,.21-.14a9.92,9.92,0,0,1,.25-1.23c.37-.9,1-.58,1.49-.1.1.1.2,0,.22-.11.09-.44.16-1.34.65-1.55s1.06.33,1.39.57c.15.11.29-.08.29-.22,0-.64-.2-2,1-1.39.38.21.61.68,1,.89a.19.19,0,0,0,.26-.06,8.53,8.53,0,0,0,.89-2.78c1.2,1.35,2.4-.15,2.53-1.67.6.66,1.43,1.17,2.17.33a3.1,3.1,0,0,0,.68-2c.62,1,1.58,1.77,2.6,1.34a2.14,2.14,0,0,0,1-2.4l.25.11c.81.26,1.29-.32,1.59-1a6.26,6.26,0,0,1,.59.46.19.19,0,0,0,.18,0,1.89,1.89,0,0,0,.65-1.16,2.7,2.7,0,0,1,.11-.71c.31-.54.71,0,1.05.31a.22.22,0,0,0,.29,0c.58-.56.37-1.06.57-1.77.15-.53.17-.36.78-.19a3.43,3.43,0,0,0,1.1.18C307.65,240,308.26,239.1,308.06,237.6ZM261.91,264c0-.39.34-.87.76-.75.68.2.64,1.1.32,1.65C262.5,264.76,262,264.45,261.91,264Zm11.83-10.35A3,3,0,0,1,275.3,257,4.44,4.44,0,0,1,273.74,253.64Z"/><path d="M334.17,252.67c0-.24-.31-.24-.34,0a1.61,1.61,0,0,1-1.68,1.53,6.17,6.17,0,0,1-1.92,0,.19.19,0,0,0-.22.15,8.64,8.64,0,0,1-.53,1.75c-.44-.34-1-.71-1.37-.18s-.1,2.5-1.19,1.41a.18.18,0,0,0-.31,0c-.62,1-1.31,1-1.82.41a3.66,3.66,0,0,0-.49-1c-.18-.25-.35.12-.31.29a5.52,5.52,0,0,0,.28.84,2.92,2.92,0,0,1-.56,2.27c-1.06.75-2.3-1.06-2.46-1.92h0a.29.29,0,0,0,0-.09c-.09-.39-.5-.19-.44.16a.36.36,0,0,0,0,.11,3.9,3.9,0,0,1-.37,2.51c-.58,1-1.31.5-1.94-.24-.19-.23-.34.06-.34.24,0,1.2-.94,2.88-2.07,1.43-.15-.19-.33,0-.37.14-.13.47-.24.94-.37,1.41a5.48,5.48,0,0,1-.31,1c0,.5-.22.55-.49.16-.42-.24-.71-.91-1.27-.85-.78.07-.88,1.13-.84,1.88-.46-.23-1-.47-1.44-.2s-.57,1-.66,1.51c-.36-.34-.8-.68-1.27-.38s-.65,1.15-.77,1.75a2.19,2.19,0,0,1-1.26-1.08c-.12-.21-.27,0-.28.17-.05.57.15,1.56-.14,2.07-.6,1-1.86-.8-2.12-1.45-.13-.34-.5-.26-.49.1,0,1.06.3,4.31-1.38,4.16a1.82,1.82,0,0,1-.8-.31,3.73,3.73,0,0,0-2.09-4.52.21.21,0,0,0-.3.12c-.57,1.44.44,3.55,1.71,4.71a2.47,2.47,0,0,1-.49.65c-.59.56-1.42.2-1.92.79-.33.41-.14.45-.66.81s-.66.22-1.11-.17a3,3,0,0,1-.53-.65c-.15-.21-.34,0-.35.18-.05.46-.08,1.42-.66,1.58s-1.07-.42-1.38-.7-.32-.05-.37.15a6.14,6.14,0,0,0-.12.86,2.87,2.87,0,0,1-.07.58c-.17.46-.88,1.28-1.24,0-.1-.34-.49-.24-.48.09a3.46,3.46,0,0,1-.9,2.48,1.85,1.85,0,0,1-1.22.62h0a1.53,1.53,0,0,0,.13-.53c0-.62-.24-1.64-.93-1.82a1.09,1.09,0,0,0-1.23.92,1.66,1.66,0,0,0,.91,1.81l.1,0a6.49,6.49,0,0,1-1.41.67,4.22,4.22,0,0,0-1.22.49c-.15.11-.26.48-.38.54-1.09.59-.55-.14-1.09-.12a1.69,1.69,0,0,0-1.74,1.38c-.89-.9-1.67.46-2,1.46-.39-.55-.86-1.42-1.49-1.58s-1.27.45-1.7.83c0,0,0,.07,0,.05.6-.44,1.24-.95,1.93-.42a8,8,0,0,1,1.22,1.6c.07.09.17,0,.19-.09.16-.67.88-2.54,1.76-1.28.11.16.24,0,.27-.1.26-1.08.8-1.38,1.84-1.12.43.11.52.2.91-.05s.35-.53.66-.71a4.6,4.6,0,0,1,.52-.19,10.6,10.6,0,0,0,1.45-.56,3.68,3.68,0,0,0,.82-.58c1.56.36,2.73-1.28,3-2.83a.93.93,0,0,0,1.34.12c.53-.41.48-1.23.55-1.91.47.39,1.08.79,1.66.49a1.81,1.81,0,0,0,.72-1.5c.57.67,1.44,1.25,2.14.49.53-.56-.54-.51,1.1-1.08.2-.08.43,0,.66-.09a2.69,2.69,0,0,0,1.08-1.11,1.21,1.21,0,0,0,.09-.2,3.24,3.24,0,0,0,.61.36c2.26,1,2.44-1.81,2.41-3.67.47.72,1.15,1.41,1.85,1.36,1.07-.07.88-1.59.73-2.6a2.8,2.8,0,0,0,1.23.86c.1,0,.19-.05.21-.14a12.18,12.18,0,0,1,.26-1.23c.37-.9,1-.58,1.49-.09.09.09.2,0,.22-.12.09-.44.16-1.34.65-1.55s1.06.33,1.39.57c.15.11.29-.07.29-.22,0-.64-.2-2.05,1-1.39.38.21.61.68,1,.89a.19.19,0,0,0,.26-.05,8.59,8.59,0,0,0,.89-2.79c1.19,1.35,2.4-.15,2.53-1.67.6.66,1.43,1.17,2.17.33a3.06,3.06,0,0,0,.68-2c.61,1,1.58,1.78,2.6,1.34a2.12,2.12,0,0,0,1-2.4l.25.11c.82.27,1.3-.32,1.59-1a6.8,6.8,0,0,1,.6.46s.14.05.18,0a1.83,1.83,0,0,0,.64-1.16c.05-.2,0-.54.11-.71.32-.54.72,0,1,.31.07.07.21.12.29,0,.59-.55.38-1.06.58-1.76.15-.54.16-.37.78-.19a3.72,3.72,0,0,0,1.1.17C333.76,255.09,334.37,254.17,334.17,252.67ZM288,279.06c0-.38.34-.87.76-.75.68.2.64,1.1.32,1.65C288.6,279.83,288.06,279.53,288,279.06Zm11.82-10.35a3,3,0,0,1,1.56,3.36A4.51,4.51,0,0,1,299.84,268.71Z"/><path d="M273.5,271.46a2.36,2.36,0,0,0-1.42.56,19.46,19.46,0,0,1-1.76-1.71c-.18-.25-.36.09-.35.26a2.24,2.24,0,0,1-.69,1.61c-.4.38-.69.27-1.16.18s-.74.18-.76.59c-.71-.28-1.09.46-1.31,1.16a.88.88,0,0,0-1.1-.2,2.67,2.67,0,0,0-.81,1.29c-.58-.41-.86-1.55-1.74-1.37-.71.15-1.27,1.17-1.42,1.82,0,.18.14.21.19,0,.14-.63.89-1.81,1.66-1.44.59.29.72,1.1,1.3,1.4a.13.13,0,0,0,.16-.08c.35-.82.8-1.85,1.74-.94.1.11.2,0,.22-.12.17-.58.46-1.53,1.22-1,.17.13.26-.15.24-.28-.1-.64.45-.31.82-.25a1.06,1.06,0,0,0,.85-.24,2.76,2.76,0,0,0,1-1.61c.31.32.67.6,1,.9.12.11.27.24.42.39a1.45,1.45,0,0,0-.09.22,1.47,1.47,0,0,0,1.06,1.84c.12,0,.18-.06.22-.16a1.85,1.85,0,0,0-.49-1.9c.35-.21.76-.23,1.1-.43C273.73,271.91,273.75,271.44,273.5,271.46Zm-.89,2.38a.77.77,0,0,1-.5-1A1.69,1.69,0,0,1,272.61,273.84Z"/><path d="M285.9,261.27c0-.08-.1,0-.11.05,0,.35,0,.8-.41.9s-.75-.2-1-.37c-.11-.06-.18.12-.19.19,0,.23-.12.94-.34,1.08s-.79-.46-1-.66-.29,0-.29.18c0,.56-.3,1.89-1.06,1.77a.85.85,0,0,1-.48-.24,2.33,2.33,0,0,0-.87-2.13c-.19-.12-.29.1-.31.25a3.35,3.35,0,0,0,.74,2.3,1.76,1.76,0,0,1-.6,1.22c-.46.33-.83,0-1.3,0-.31,0-.45.3-.53.57-.6-.41-1,.23-1.28.81-.77-.59-1.39.07-1.56.87a1.84,1.84,0,0,0-1.17-.47c-.67.05-.58.81-.49,1.28,0,.22.24,0,.23-.11-.1-1.06,1.1-.27,1.47.1.18.17.39,0,.37-.21,0-.74.46-1.42,1.14-.79a.17.17,0,0,0,.25-.07c.2-.46.45-1.36,1.05-.8.12.11.24-.06.26-.17.15-.9.73-.31,1.32-.4a1.52,1.52,0,0,0,1.06-1.12,2.34,2.34,0,0,0,.12-.4,1.49,1.49,0,0,0,.72.28c1,.05,1.21-1.13,1.25-2,.28.34.65.7,1,.51s.45-.84.48-1.32c.37.24.89.5,1.27.22S286,261.66,285.9,261.27Z"/><path d="M287.36,261.22s-.08,0-.11,0l0,.06,0,0s0,0,0,0a.3.3,0,0,1-.08.08l0,0h0s0,0,0,0l-.11,0h-.1l-.06,0h0a1.4,1.4,0,0,1-.26-.16.09.09,0,0,0-.1,0,.21.21,0,0,0-.07.11.22.22,0,0,0,.06.24.77.77,0,0,0,.6.16.7.7,0,0,0,.43-.46A.15.15,0,0,0,287.36,261.22Z"/><path d="M289.08,259.38c0-.06-.06,0-.06,0a1.38,1.38,0,0,1-.39,1,2.5,2.5,0,0,1-1,.3,7.58,7.58,0,0,0-.82.21c-.14.05-.15.4,0,.35.46-.15.94-.21,1.4-.34a1.43,1.43,0,0,0,.45-.21,1,1,0,0,0,.31-.53A3,3,0,0,0,289.08,259.38Z"/><path d="M313.22,245.17c-.08-.11-.21-.08-.26.05-.34,1.05-1.18.95-1.7,0-.1-.18-.22.05-.22.16a4.62,4.62,0,0,1-.5,2.4c-.53.82-.88-.16-1.48-.14s-.74.69-.78,1.25c-.52-.31-1,0-1.26.68-.61-.54-1.08-.16-1.36.58-.32-.27-.76-.78-1.07-.7-.59.16-.68,3.21-1.57,1.38,0-.09-.09-.13-.14-.14a.51.51,0,0,0-.15-.33,1.23,1.23,0,0,0-2,.58c-.46,1-.81,4.61-2.38,2.32-.13-.18-.32,0-.32.14,0,.78-.09,1.83-1,.92-.13-.13-.27.08-.27.19,0,.52,0,1.83-.87,1.22a2.32,2.32,0,0,1-.82-1.35c-.05-.25-.3,0-.26.15a4,4,0,0,1-.61,2.75c-.09.15.05.42.18.21a4.65,4.65,0,0,0,.76-2.08c.29.56.73,1.11,1.25,1s.69-.8.73-1.37c.93.77,1.19,0,1.27-1,.6.66,1.34.84,1.95-.12a6.16,6.16,0,0,0,.48-1.5,1.49,1.49,0,0,0,.47,1c.94.9,1.54-.55,1.74-1.62.35.43.8.66,1.22,0,.18-.28.41-1.56.55-1.56s.81.67.94.74.26,0,.3-.18c0-.59.36-.72,1-.39.13.16.33,0,.36-.13,0-.52.32-.71.95-.55.16.23.42.14.42-.15a1.85,1.85,0,0,1,.07-.88c.34-.45.63,0,.91.13a.84.84,0,0,0,1-.35,3.87,3.87,0,0,0,.56-2.54c.61.85,1.6.92,1.88-.17a11.35,11.35,0,0,1,2.48,4.13c.1.29.36,0,.35-.16C315.93,247.81,314.22,246.59,313.22,245.17ZM302,252.85c-.76.58-.81-.85-.57-1.27a1,1,0,0,1,1.15-.56v0A2.46,2.46,0,0,1,302,252.85Z"/><path d="M308,290.19a2.37,2.37,0,0,0-1.42.57,20.92,20.92,0,0,1-1.76-1.71c-.18-.25-.36.09-.34.26a2.29,2.29,0,0,1-.7,1.61c-.4.37-.69.27-1.16.18s-.74.18-.76.59c-.71-.29-1.09.46-1.31,1.16a.86.86,0,0,0-1.09-.2,2.57,2.57,0,0,0-.81,1.28c-.59-.4-.87-1.54-1.74-1.36s-1.28,1.17-1.42,1.82c0,.18.14.21.18,0,.15-.62.9-1.8,1.66-1.43.59.29.72,1.09,1.31,1.4a.12.12,0,0,0,.15-.08c.35-.83.8-1.85,1.74-.94.1.1.2,0,.23-.12.16-.58.46-1.53,1.21-1,.18.13.27-.15.25-.28-.11-.64.44-.31.81-.26a1,1,0,0,0,.86-.23,2.83,2.83,0,0,0,1-1.61c.31.32.67.6,1,.9l.41.39a1.43,1.43,0,0,0-.08.22,1.46,1.46,0,0,0,1.06,1.84c.11,0,.18-.06.22-.16a1.89,1.89,0,0,0-.49-1.91c.34-.2.75-.22,1.1-.42C308.24,290.65,308.27,290.18,308,290.19Zm-.89,2.39a.77.77,0,0,1-.5-1A1.64,1.64,0,0,1,307.12,292.58Z"/><path d="M320.41,280c0-.08-.1,0-.1.05,0,.35,0,.8-.42.9s-.75-.21-1-.37c-.11-.07-.18.12-.19.19,0,.22-.11.94-.33,1.08s-.8-.46-1-.66-.29,0-.28.18c0,.56-.3,1.89-1.07,1.77a.85.85,0,0,1-.48-.24,2.35,2.35,0,0,0-.86-2.13c-.19-.13-.3.1-.32.25a3.47,3.47,0,0,0,.74,2.3,1.8,1.8,0,0,1-.59,1.22c-.47.33-.83,0-1.31,0-.3,0-.44.3-.52.57-.61-.41-1,.23-1.29.81-.76-.59-1.38.07-1.56.86a1.86,1.86,0,0,0-1.17-.46c-.66,0-.57.81-.49,1.28,0,.22.25,0,.23-.11-.1-1.06,1.11-.27,1.48.1.17.17.38,0,.37-.22,0-.73.46-1.41,1.14-.79.07.08.2,0,.24-.06.2-.46.45-1.36,1.05-.8.13.11.24-.06.26-.17.15-.9.73-.31,1.33-.4a1.54,1.54,0,0,0,1.06-1.12c0-.13.08-.26.12-.41a1.26,1.26,0,0,0,.72.28c1,.06,1.21-1.12,1.24-2,.28.34.66.7,1,.51s.45-.85.47-1.32c.38.24.89.5,1.28.22S320.54,280.4,320.41,280Z"/><path d="M323.59,278.12c0-.06-.06,0-.06,0a1.34,1.34,0,0,1-.39,1,2.57,2.57,0,0,1-1,.3,5.8,5.8,0,0,0-.82.21c-.14,0-.15.4,0,.35.46-.15.94-.22,1.4-.35a1.22,1.22,0,0,0,.45-.2.93.93,0,0,0,.31-.53A2.43,2.43,0,0,0,323.59,278.12Z"/><path d="M347.73,263.91c-.07-.11-.21-.09-.25,0-.35,1.05-1.19,1-1.7,0-.1-.18-.23,0-.23.16a4.64,4.64,0,0,1-.49,2.4c-.54.82-.89-.16-1.49-.14s-.74.68-.78,1.25c-.52-.31-1,0-1.25.68-.62-.54-1.09-.16-1.37.58-.32-.28-.76-.78-1.07-.7-.59.16-.68,3.21-1.57,1.38,0-.09-.09-.13-.14-.14a.45.45,0,0,0-.15-.33,1.23,1.23,0,0,0-2,.58c-.45,1-.81,4.61-2.38,2.31-.12-.17-.31,0-.32.15,0,.78-.08,1.83-1,.92-.13-.13-.27.07-.28.19,0,.52,0,1.82-.87,1.22a2.29,2.29,0,0,1-.81-1.35c-.06-.25-.31,0-.27.15a4,4,0,0,1-.61,2.75c-.08.14.05.42.18.21a4.7,4.7,0,0,0,.76-2.08c.29.56.73,1.11,1.25,1s.69-.8.73-1.37c.94.77,1.19-.05,1.27-1,.6.66,1.34.84,1.95-.12a5.75,5.75,0,0,0,.48-1.5,1.59,1.59,0,0,0,.47,1c1,.89,1.55-.55,1.75-1.63.34.44.8.66,1.22,0,.17-.28.41-1.56.54-1.57s.81.68.94.75.27,0,.31-.18c0-.59.36-.72,1-.39.13.16.32.05.36-.13,0-.52.31-.71.94-.55.16.23.42.13.42-.15s-.06-.7.07-.88c.34-.45.63,0,.92.13a.83.83,0,0,0,1-.35,3.87,3.87,0,0,0,.56-2.54c.61.85,1.6.92,1.88-.17a11.05,11.05,0,0,1,2.48,4.13c.11.29.36,0,.35-.16C350.45,266.55,348.73,265.33,347.73,263.91Zm-11.19,7.68c-.76.57-.8-.85-.57-1.27a1,1,0,0,1,1.16-.56.07.07,0,0,0,0,.05A2.42,2.42,0,0,1,336.54,271.59Z"/><path d="M293,272.92a12.5,12.5,0,0,0-2.92-5.53c-.14-.16-.4-.23-.47,0-.19.67.09,2.36-.72,2.61-.6.19-.94-.91-1.46-1.22a.19.19,0,0,0-.28.1c-.43.81-.31,2-.83,2.73-.2-.29-.47-.57-.81-.38s-.39.68-.45,1.08c-.68-.47-1.15.07-1.39.84-.77-.72-1.3-.2-1.73.71a1.54,1.54,0,0,0-1-.7.2.2,0,0,0-.21.12,10.38,10.38,0,0,0-.34,1.33c-.33,1.17-1,0-1.27-.51-.08-.15-.29-.21-.37,0a8.37,8.37,0,0,0-.37,1.72,2,2,0,0,1-.15.56.8.8,0,0,1-1,.2c-.32-.17-.5-.83-.58-1.15s-.44-.26-.43.05c0,1,.21,3-.93,3.53a1,1,0,0,1-.75,0,2.13,2.13,0,0,0,.27-1.64c-.29-1-1.27-.81-1.39.18a2.42,2.42,0,0,0,.41,1.52,4,4,0,0,1-1.48,1.24c-.21.11-.14.66.11.54a5,5,0,0,0,1.74-1.35,1.12,1.12,0,0,0,1.28.18c1-.48,1.18-1.83,1.2-3,.32.54.79,1,1.38.74.87-.32.82-1.58,1-2.45.31.57.78,1.25,1.37.87.31-.2.4-.73.48-1.05,0-.15.07-.77.19-.85s.74.55.87.67a.19.19,0,0,0,.33,0c.29-.68.68-1.57,1.46-.61.13.17.32.05.36-.12.07-.36.28-1.56,1.07-.72a.21.21,0,0,0,.36-.13c.05-.2.17-1.49.69-.67.08.13.23.2.35.08.72-.74.6-1.9,1-2.82.53.5.73,1.53,1.64,1.18s.9-1.49,1-2.4a15.48,15.48,0,0,1,2.35,4.68C292.65,273.56,293.15,273.44,293,272.92Z"/><path d="M303.27,261.42a1,1,0,0,0-.55.91c-.32-.31-.66-.8-1.1-.52a1,1,0,0,0-.39.82.89.89,0,0,0-1.29-.2c-.4.32-.36.78-.39,1.23a.69.69,0,0,0-.41-.33c-.28-.05-.46.21-.57.43a6.76,6.76,0,0,0-.45,1.47,3.83,3.83,0,0,0-1.49-1.21c-.88-.28-1.1.88-1.18,1.49,0,.35.39.56.44.13s.2-1.29.87-.92a6.32,6.32,0,0,1,1.33,1.2c.12.13.26.09.31-.08.15-.43.2-.89.34-1.32.05-.16.13-.51.29-.59s.38.31.44.44.27.13.32-.06c.1-.39,0-.86.16-1.22a.62.62,0,0,1,.76-.29,1.59,1.59,0,0,1,.58.6c.17.24.31-.12.29-.27,0-.3-.08-1.14.43-.94.33.13.52.59.83.78s.22-.21.21-.29a1.64,1.64,0,0,1,.29-1.07C303.37,261.55,303.39,261.37,303.27,261.42Z"/><path d="M325.29,246.66c-.11-.16-.26,0-.26.14a8.24,8.24,0,0,1-.25,2.37c-.13.43-.35.87-.86.92s-.76-.35-1.16-.54c-1.17-.53-1.55,1-1.62,1.94a.66.66,0,0,0-1,.28c-.69-.63-1.21.12-1.36.93-.37-.38-.7-.72-1.22-.23s-.4,1.09-.44,1.68c-.5-.49-1-1.08-1.75-.58s-.63,1.37-.74,2.11a6.84,6.84,0,0,1-1.09-.68c-.05,0-.12,0-.15.05a5.49,5.49,0,0,0-.31.59.88.88,0,0,1-.48.69,3.16,3.16,0,0,1-.95-.75.18.18,0,0,0-.31,0c-.2.35-.24.74-.41,1.09-.34.71-.72.5-1.27,0-.19-.17-.36,0-.4.18a12.39,12.39,0,0,1-.19,1.38c-.46,1.33-1.67-.14-2-.75-.12-.24-.4-.11-.4.13,0,.74.45,2.58-.39,2.89-.19.06-.16.54.07.47.88-.26.85-1.44.8-2.39.45.62,1.12,1.19,1.82.86s.69-1.14.75-1.83c.38.3.84.54,1.26.21a2.81,2.81,0,0,0,.65-1.59,5.89,5.89,0,0,0,1.13.69.14.14,0,0,0,.17-.07,7.19,7.19,0,0,0,.37-.86c.37-.73.77-.07,1.34.14.1,0,.17-.06.19-.15.13-.57.06-1.8.74-2s1.15.52,1.52.89a.18.18,0,0,0,.33-.09c.08-.29,0-.65.13-.91s.66-.79.92-.71l.34.33c.19.17.3-.18.3-.3-.11-.63.21-.89.95-.79.16.19.32,0,.32-.21.15-.46.41-.51.75-.16.12.1.22,0,.25-.14a7.45,7.45,0,0,1,.26-1.33.84.84,0,0,1,.94-.64c.16,0,.39.34.52.43a1.2,1.2,0,0,0,1.51,0c.78-.65.74-2,.67-3.06.93,1.18,2.13,2.44,2.31,3.93,0,.28.3.18.31-.06C328.09,249.42,326.2,248,325.29,246.66Z"/><path d="M307.41,283.7a12.58,12.58,0,0,0-2.92-5.54c-.14-.15-.4-.22-.48,0-.18.67.1,2.36-.71,2.62-.6.19-.94-.92-1.46-1.23a.2.2,0,0,0-.29.11c-.42.81-.31,2-.82,2.73-.2-.29-.47-.58-.81-.39s-.39.68-.45,1.09c-.68-.48-1.15.06-1.39.84-.77-.73-1.3-.2-1.74.7a1.52,1.52,0,0,0-1-.69.18.18,0,0,0-.21.12,11.64,11.64,0,0,0-.35,1.32c-.32,1.18-1,0-1.26-.51-.08-.15-.29-.21-.37,0a8.46,8.46,0,0,0-.37,1.73,1.8,1.8,0,0,1-.16.56.8.8,0,0,1-1,.19c-.32-.16-.5-.82-.58-1.15s-.44-.26-.43,0c0,1,.21,3-.93,3.53a1,1,0,0,1-.75,0,2.12,2.12,0,0,0,.27-1.64c-.3-1-1.27-.81-1.39.18a2.47,2.47,0,0,0,.41,1.53,4,4,0,0,1-1.48,1.24c-.21.1-.14.65.11.54a5.2,5.2,0,0,0,1.74-1.36,1.13,1.13,0,0,0,1.28.19c1-.49,1.17-1.83,1.2-3,.32.53.79,1,1.38.74.87-.33.82-1.58,1-2.46.31.57.78,1.26,1.37.87.31-.2.4-.72.48-1,0-.14.07-.77.19-.85s.74.55.87.68a.19.19,0,0,0,.33-.05c.29-.67.67-1.57,1.46-.6.13.16.32,0,.36-.13.07-.36.28-1.55,1.07-.72.14.15.32.06.36-.13s.17-1.48.69-.66c.08.13.23.2.35.07.72-.74.6-1.89,1-2.82.52.5.73,1.53,1.64,1.19s.9-1.49,1-2.4a15.66,15.66,0,0,1,2.35,4.67C307,284.34,307.52,284.21,307.41,283.7Z"/><path d="M317.64,272.19a1,1,0,0,0-.55.91c-.32-.3-.66-.79-1.1-.52a1,1,0,0,0-.39.82.89.89,0,0,0-1.29-.2c-.4.33-.36.79-.39,1.23a.73.73,0,0,0-.41-.33c-.28-.05-.46.22-.57.43a6.55,6.55,0,0,0-.45,1.47,4,4,0,0,0-1.49-1.21c-.88-.28-1.1.88-1.18,1.49,0,.36.39.56.44.13s.2-1.28.87-.92a6.62,6.62,0,0,1,1.33,1.21c.12.12.26.08.31-.09.14-.43.19-.89.33-1.32,0-.15.13-.5.3-.58s.37.3.44.44.27.12.32-.07c.1-.38,0-.85.16-1.21a.61.61,0,0,1,.76-.29c.26.1.42.38.58.59s.31-.11.29-.27-.08-1.14.43-.94c.33.14.52.59.83.78s.22-.2.21-.29a1.6,1.6,0,0,1,.29-1.06C317.74,272.33,317.75,272.15,317.64,272.19Z"/><path d="M339.66,257.43c-.11-.15-.26,0-.26.14a8.21,8.21,0,0,1-.25,2.37c-.13.44-.36.87-.86.92s-.76-.35-1.16-.53c-1.17-.54-1.55,1-1.62,1.93-.43-.18-.8-.1-1,.29-.7-.64-1.21.11-1.36.92-.37-.38-.7-.72-1.22-.22s-.4,1.08-.44,1.68c-.5-.5-1-1.08-1.75-.59s-.64,1.37-.74,2.11a6.84,6.84,0,0,1-1.09-.68c-.05,0-.12,0-.15.05a5.58,5.58,0,0,0-.31.59.9.9,0,0,1-.48.69,2.78,2.78,0,0,1-.95-.75.18.18,0,0,0-.31,0c-.2.34-.24.73-.41,1.09-.34.7-.72.49-1.27,0-.19-.17-.36,0-.41.19a12.7,12.7,0,0,1-.18,1.38c-.46,1.32-1.67-.15-2-.75-.12-.25-.4-.12-.4.12,0,.74.45,2.58-.39,2.89-.19.07-.16.54.07.47.88-.26.85-1.44.8-2.38.45.62,1.12,1.18,1.82.86s.69-1.14.75-1.83c.38.29.84.54,1.26.2a2.78,2.78,0,0,0,.65-1.58,7.1,7.1,0,0,0,1.13.69c.07,0,.13,0,.17-.07a8,8,0,0,0,.37-.86c.37-.73.77-.08,1.34.13.1,0,.16-.06.19-.14.13-.58.06-1.8.74-2.05s1.15.52,1.52.9c.13.12.27.08.33-.09s0-.66.13-.92.66-.79.92-.71l.34.33c.19.17.3-.17.3-.3-.11-.62.21-.89.95-.79.16.2.32,0,.31-.21.16-.46.41-.51.76-.16.12.1.22,0,.24-.14a8.47,8.47,0,0,1,.27-1.33.83.83,0,0,1,.94-.64c.16,0,.39.35.51.43a1.22,1.22,0,0,0,1.52,0c.78-.64.74-2,.67-3.05.92,1.17,2.13,2.43,2.31,3.92,0,.28.3.18.31-.06C342.46,260.2,340.57,258.75,339.66,257.43Z"/></g></g></g><g id="Character"><g id="Character-2" data-name="Character"><path class="cls-23" d="M338.17,283.18l-20.75,14-4.14,2.8h0a1.28,1.28,0,0,1-1.66-.18,1.27,1.27,0,0,1-.33-1.3v0l1.78-5.31,7.81-23.32,6.95,5.36Z"/><path class="cls-24" d="M327.83,275.18,314.2,295.85l-2.59,3.94a1.27,1.27,0,0,1-.33-1.3v0l1.78-5.31,7.81-23.32Z"/><path class="cls-4" d="M317.42,297.17l-4.14,2.8h0a1.28,1.28,0,0,1-1.66-.18,1.27,1.27,0,0,1-.33-1.3v0l1.78-5.31a5.24,5.24,0,0,0,1.13,2.71A4.12,4.12,0,0,0,317.42,297.17Z"/><path class="cls-19" d="M410.72,151.35,409,153.64l-2.12,2.76-86,113.41a13.87,13.87,0,0,0,4.72,9c3.88,3.62,9.25,5.51,12.54,4.35l85.43-112.68,4-5.28C424.8,168.48,408,154.67,410.72,151.35Z"/><path class="cls-4" d="M409,153.64l-2.12,2.76-86,113.41a13.87,13.87,0,0,0,4.72,9l87.88-117.15Z"/><path class="cls-1" d="M404.06,160.05l-3.89,5.13c-1.17,1.45,1.27,4.8,4.68,7.91,4.5,4.13,10.73,7.8,12.29,5.89l3.92-5.18c-1.56,1.92-7.84-1.72-12.35-5.85-3.26-3-5.63-6.21-4.76-7.73h0A.39.39,0,0,1,404.06,160.05Z"/><path class="cls-9" d="M408.71,168c-3.25-3-5.63-6.21-4.76-7.73h0a.39.39,0,0,1,.1-.16l-3.89,5.13c-1.17,1.45,1.27,4.8,4.68,7.91l3.86-5.14Z"/><path class="cls-7" d="M403.1,161.34c-2.74,3.36,14.22,17.15,16.95,13.79l3.89-5.12c-2.74,3.36-19.67-10.43-16.94-13.79Z"/><path class="cls-1" d="M410.72,151.35l-3.86,5.05c-2.7,3.28,13.51,16.75,16.72,14.08a.83.83,0,0,0,.17-.16l3.84-5.12C424.8,168.48,408,154.67,410.72,151.35Z"/><path class="cls-25" d="M427.06,129.89l-16.34,21.46c-1.18,1.42,1.22,4.75,4.58,7.85,4.5,4.14,10.7,7.88,12.29,6l0,0,15.71-20.64c4.07-4.51-3.46-13.52-10-15.66C430.87,128.06,428.58,128.21,427.06,129.89Z"/><path class="cls-23" d="M427.06,129.89l-16.34,21.46c-1.18,1.42,1.22,4.75,4.58,7.85L432,138.26s-4.36-4.39-4-6.88,2.56-3,5.28-2.5C430.87,128.06,428.58,128.21,427.06,129.89Z"/><path class="cls-26" d="M407,156.22l-3.9,5.12c-1.17,1.44,1.27,4.79,4.65,7.89l3.87-5.15C408.26,161,405.84,157.66,407,156.22Z"/><path class="cls-9" d="M410.72,151.35l-3.86,5.05c-1.18,1.43,1.23,4.79,4.59,7.91l3.85-5.11C412,156.1,409.54,152.77,410.72,151.35Z"/><g id="Character-3" data-name="Character"><path class="cls-23" d="M407.14,184.15c4.06-.08,7.84,1.57,10,8.24,2.41,7.41,6.73,23.13,5.13,28.52C421,225.17,403.09,227,403.09,227l-2.25-9.17,11-2.29L410.23,207Z"/><path class="cls-7" d="M406.79,183.69c7-.51,9,3.58,10.48,8a150.16,150.16,0,0,1,4.3,15.1s-1.8,6-10.08,5l-1.13-3.87Z"/><path class="cls-6" d="M364.17,353.14c-.37,1.85.3,2.82,2.69,4.2s6.14,1.85,10.09.7,5.83-2.87,7.47-3.28,5.7-.44,7.32-.92,1.6-1.31,1.59-3.25Z"/><path class="cls-7" d="M391.74,341.19s.77,2.33,1.19,4.38c.33,1.62.8,4.33.23,5.55s-2.78,2-6.22,2c-2.22,0-5.69,1.5-8.07,2.82a12.28,12.28,0,0,1-7.7,1.07c-3.06-.36-6.23-2.13-6.72-3.4s-.62-2.21,6.58-5.28c.07,0,8.36-3.09,11.85-6.94Z"/><g class="cls-14"><path d="M391.74,341.19s.77,2.33,1.19,4.38c.33,1.62.8,4.33.23,5.55s-2.78,2-6.22,2c-2.22,0-5.69,1.5-8.07,2.82a12.28,12.28,0,0,1-7.7,1.07c-3.06-.36-6.23-2.13-6.72-3.4s-.62-2.21,6.58-5.28c.07,0,8.36-3.09,11.85-6.94Z"/></g><path class="cls-9" d="M377.89,356.39s-.62-6.18-5.65-7.95c-4.54-1.6-8.51,1.77-8.07,4.7C364.47,355.11,370,359.58,377.89,356.39Z"/><path class="cls-9" d="M373.52,347.28A5.86,5.86,0,0,1,377,348.8c1.45,1.22,1.49,2,1.49,2a.76.76,0,0,0,1.31-.63s-.33-3.12-4.44-3.76A1.67,1.67,0,0,0,373.52,347.28Z"/><path class="cls-9" d="M376.39,345.9a5.19,5.19,0,0,1,3.47,1.38c1.45,1.22,1.46,2.18,1.46,2.18a.76.76,0,0,0,1.31-.63s-.34-3.12-4.44-3.76A1.69,1.69,0,0,0,376.39,345.9Z"/><path class="cls-9" d="M379.25,344.27a5.13,5.13,0,0,1,3.55,1.14c1.53,1.12,1.6,2.07,1.6,2.07a.76.76,0,0,0,1.27-.71s-.55-3.09-4.69-3.45A1.68,1.68,0,0,0,379.25,344.27Z"/><path class="cls-23" d="M391.74,335.94v5.48c0,1.14-1.33,2.83-4.81,2.71-2.44-.09-4.15-.75-4.05-2.76v-5Z"/><path class="cls-6" d="M395.33,320.82a10.25,10.25,0,0,0,.28,4.7c.87,2.48,2.72,3.61,3.8,4.58a18.6,18.6,0,0,1,3.16,3.83,16.13,16.13,0,0,0,3.3,4.12c1,.89,3.92,1,5.32.38s1.87-1.11,1.78-3.34-6.85-3-6.85-3Z"/><path class="cls-7" d="M412.09,328.43c.58.22.73,1.32.81,3.51.07,1.65.77,4.07-1.51,5.12a5.57,5.57,0,0,1-6-1.28c-1.55-1.95-2.6-3.66-4.81-6-1.92-2.06-3.91-2.76-4.77-6.87-.54-2.65-.11-3.75,1.67-4.51,2.45-1,6.29,2.37,8.21,2.91C407.32,321.74,411.52,328.22,412.09,328.43Z"/><path class="cls-13" d="M412.09,328.43c.58.22.73,1.32.81,3.51.07,1.65.77,4.07-1.51,5.12a5.57,5.57,0,0,1-6-1.28c-1.55-1.95-2.6-3.66-4.81-6-1.92-2.06-3.91-2.76-4.77-6.87-.54-2.65-.11-3.75,1.67-4.51,2.45-1,6.29,2.37,8.21,2.91C407.32,321.74,411.52,328.22,412.09,328.43Z"/><path class="cls-9" d="M405.67,321.28l-.32-.12a6.33,6.33,0,0,0-5.31,3.48c-.32.72.68,1.28,1.28.72a6.72,6.72,0,0,1,5.3-3.45A2.66,2.66,0,0,0,405.67,321.28Z"/><path class="cls-9" d="M407.26,322.52a6.26,6.26,0,0,0-4.93,3.45c-.33.72.68,1.28,1.28.72a6.45,6.45,0,0,1,4.42-3.3Z"/><path class="cls-23" d="M412.42,324.48l-.33,4.61a6.56,6.56,0,0,1-6.78.19c-.12-.26-.46-4.38-.46-4.38Z"/><path class="cls-9" d="M396.92,325.92s.19-4.9,6.81-5.58l.38.22a5.67,5.67,0,0,0-3.26-2.52,4.52,4.52,0,0,0-5.09,1.46C394.6,321,395.77,325,396.92,325.92Z"/><path class="cls-4" d="M414.36,293.76a67,67,0,0,0-2.62-12.88s1.13-11.05,1.78-21.52c.71-11.32.56-25.57.84-28.4,0,0-35.11-8.1-36.06,5-1.06,14.72.07,47.13.29,51.23.3,5.76.31,11.76,1.29,21.11s2.58,30,2.58,30c4.68,1.68,9.77,0,9.77,0s2.71-25.09,2.59-31.73A56.36,56.36,0,0,0,392.63,292L397,255.54s.43,16.22.73,22,1.1,9.27,2.52,20c1.24,9.3,4.44,28.06,4.44,28.06a10.23,10.23,0,0,0,7.76,0S415.3,301.83,414.36,293.76Z"/><path class="cls-19" d="M409.69,247.9s-4.25,5.72-9.72,8.17c0,0-2.37,20.08-2.35,19.68L397,255.54S405.17,251.74,409.69,247.9Z"/><polygon class="cls-23" points="389.99 179.24 391.88 191.19 403.73 190.56 402.03 176.66 389.99 179.24"/><path class="cls-6" d="M414.55,190c-1-3.26-4.66-6.94-8.78-6.27-1,.15-1.87.23-2.78.39-.5,2-6.56,3.73-11.83,2.49l-6.89.8c-3.79,1.26-4.78,4.92-5.37,17.29,0,0-1,28.57-.86,36.29,9.36,4,17.8,4,23.26,3,11.36-2.21,13.23-7.08,13.23-7.08l-.8-19.87c0-4.32,1.61-10.17,1.95-12.94C416.73,195.55,415.23,192.26,414.55,190Z"/><path class="cls-23" d="M385.13,187.78c-8.8.29-8.91,2.06-11.77,11C372,203,370,209.86,368.11,215.68c-1.13,1.11-10.13,7.26-13.29,9.46s-5,1.74-8,4.07c-2.07,1.56-2.78,3.63-3.81,6a11,11,0,0,0-.92,6.68l2.38-3.14s3.11-.23,4.68-.37c2.75-.26,5.06-3.77,7.76-5.24,5.24-2.83,12.6-5.74,17.35-8,2.38-1.11,3.06-1.88,3.63-3.76,2.23-7.32,4.16-14.65,4.16-14.65C386.16,201.43,387.48,190.73,385.13,187.78Z"/><path class="cls-7" d="M385.34,187.31a17.61,17.61,0,0,0-5.64.47c-2.48.75-3.91,2.09-5.58,6.52s-5.24,18-5.24,18,.59,1.92,4.48,3.52c4.06,1.66,6.27.87,6.27.87l3.26-9.8s3.1-5,3.65-8.37S387.15,191,385.34,187.31Z"/><path class="cls-25" d="M382,164.57s-2.82,4.28-2.5,4.7,2.4.81,2.4.81Z"/><path class="cls-23" d="M389.86,152.71c-5.72,1.2-7.37,3.72-7.91,12.8-.56,9.49.41,12.47,1.65,13.75.85.86,5.52,1,7.88.37,2.95-.82,9.63-3.18,12.75-8,3.68-5.61,4.64-13.22.71-16.34C399.4,150.93,392.18,152.22,389.86,152.71Z"/><path class="cls-4" d="M380.8,156.22a7.48,7.48,0,0,0,1.46,1.15,19.8,19.8,0,0,0,2.38,1.33,13.71,13.71,0,0,1,2.33,1.08,3.2,3.2,0,0,1,1.19,2.92c0,.78,0,1.74,0,2.79,0,1.58,1,2.78,1.51.67,0,0,.91-3.51,3.86-3.07s3.22,3.77,1.81,6.39c-.86,1.59-3.15,1.17-3.15,1.17a10.32,10.32,0,0,0,3.08,7.95s2.35,1.23,7,.24c3.18-4.38,5.19-6.51,6.89-10.3,3.59-8,1.86-13-.92-15.13-.56-3.69-3.46-5.34-6.77-6.1-4.95-1.14-9.58,1.8-14.47.7-.8-.18-1.62-.37-2.39-.62a1.29,1.29,0,0,0-1-.07,1.1,1.1,0,0,0-.47,1.09,3,3,0,0,0,1.44,2.32c-.1-.06-.57.07-.71.08s-.54,0-.82,0c-.53,0-1.07-.07-1.61-.11a3,3,0,0,0-1.11,0,2,2,0,0,0-1.26,2,4.84,4.84,0,0,0,.88,2.37,7.27,7.27,0,0,0,.59.86Z"/><path class="cls-25" d="M383.6,179.26c.68.7,3.87.93,6.32.65l.17,0-.41-1.35S386,179.71,383.6,179.26Z"/></g></g></g></g></svg>